Heebo-Regular.ufo
<glyph name="exclam" format="2">
  <advance width="528.95"/>
  <unicode hex="0021"/>
  <outline>
    <contour>
      <point x="349" y="411" type="line"/>
      <point x="363" y="1456" type="line"/>
      <point x="167" y="1456" type="line"/>
      <point x="181" y="411" type="line"/>
    </contour>
    <contour>
      <point x="161" y="152"/>
      <point x="161" y="93" type="curve" smooth="yes"/>
      <point x="161" y="34"/>
      <point x="198" y="-11"/>
      <point x="270" y="-11" type="curve" smooth="yes"/>
      <point x="342" y="-11"/>
      <point x="381" y="34"/>
      <point x="381" y="93" type="curve" smooth="yes"/>
      <point x="381" y="152"/>
      <point x="342" y="199"/>
      <point x="270" y="199" type="curve" smooth="yes"/>
      <point x="198" y="199"/>
    </contour>
  </outline>
</glyph>
<glyph name="numbersign" format="2">
  <advance width="1262.96"/>
  <unicode hex="0023"/>
  <outline>
    <contour>
      <point x="563" y="1456" type="line"/>
      <point x="279" y="0" type="line"/>
      <point x="423" y="0" type="line"/>
      <point x="707" y="1456" type="line"/>
    </contour>
    <contour>
      <point x="970" y="1456" type="line"/>
      <point x="686" y="0" type="line"/>
      <point x="830" y="0" type="line"/>
      <point x="1115" y="1456" type="line"/>
    </contour>
    <contour>
      <point x="196" y="902" type="line"/>
      <point x="1236" y="902" type="line"/>
      <point x="1236" y="1040" type="line"/>
      <point x="196" y="1040" type="line"/>
    </contour>
    <contour>
      <point x="120" y="410" type="line"/>
      <point x="1161" y="410" type="line"/>
      <point x="1161" y="547" type="line"/>
      <point x="120" y="547" type="line"/>
    </contour>
  </outline>
</glyph>
<glyph name="dollar" format="2">
  <advance width="1151.03"/>
  <unicode hex="0024"/>
  <outline>
    <contour>
      <point x="675" y="1388" type="line"/>
      <point x="675" y="1692" type="line"/>
      <point x="524" y="1692" type="line"/>
      <point x="524" y="1388" type="line"/>
    </contour>
    <contour>
      <point x="656" y="-208" type="line"/>
      <point x="656" y="58" type="line"/>
      <point x="507" y="58" type="line"/>
      <point x="507" y="-208" type="line"/>
    </contour>
    <contour>
      <point x="855" y="494"/>
      <point x="855" y="375" type="curve"/>
      <point x="855" y="231"/>
      <point x="753" y="139"/>
      <point x="575" y="139" type="curve" smooth="yes"/>
      <point x="444" y="139"/>
      <point x="297" y="202"/>
      <point x="297" y="429" type="curve"/>
      <point x="110" y="429" type="line"/>
      <point x="110" y="91"/>
      <point x="347" y="-21"/>
      <point x="575" y="-21" type="curve" smooth="yes"/>
      <point x="858" y="-21"/>
      <point x="1042" y="120"/>
      <point x="1042" y="377" type="curve"/>
      <point x="1042" y="613"/>
      <point x="896" y="726"/>
      <point x="639" y="809" type="curve" smooth="yes"/>
      <point x="420" y="882"/>
      <point x="353" y="954"/>
      <point x="353" y="1083" type="curve"/>
      <point x="353" y="1222"/>
      <point x="430" y="1317"/>
      <point x="597" y="1317" type="curve" smooth="yes"/>
      <point x="757" y="1317"/>
      <point x="843" y="1187"/>
      <point x="843" y="1009" type="curve"/>
      <point x="1029" y="1009" type="line"/>
      <point x="1029" y="1311"/>
      <point x="868" y="1477"/>
      <point x="597" y="1477" type="curve" smooth="yes"/>
      <point x="335" y="1477"/>
      <point x="166" y="1326"/>
      <point x="166" y="1080" type="curve"/>
      <point x="166" y="844"/>
      <point x="321" y="723"/>
      <point x="574" y="646" type="curve" smooth="yes"/>
      <point x="781" y="577"/>
    </contour>
  </outline>
</glyph>
<glyph name="ampersand" format="2">
  <advance width="1274.3"/>
  <unicode hex="0026"/>
  <outline>
    <contour>
      <point x="628" y="963" type="curve"/>
      <point x="410" y="808" type="line"/>
      <point x="230" y="682"/>
      <point x="101" y="574"/>
      <point x="101" y="391" type="curve"/>
      <point x="101" y="151"/>
      <point x="282" y="-20"/>
      <point x="573" y="-20" type="curve"/>
      <point x="718" y="-20"/>
      <point x="876" y="34"/>
      <point x="976" y="143" type="curve" smooth="yes"/>
      <point x="988" y="155"/>
      <point x="992" y="172"/>
      <point x="1004" y="184" type="curve" smooth="yes"/>
      <point x="1127" y="307"/>
      <point x="1183" y="474"/>
      <point x="1183" y="672" type="curve"/>
      <point x="1015" y="672" type="line"/>
      <point x="1015" y="349"/>
      <point x="795" y="130"/>
      <point x="573" y="130" type="curve" smooth="yes"/>
      <point x="380" y="130"/>
      <point x="288" y="249"/>
      <point x="288" y="391" type="curve"/>
      <point x="288" y="435"/>
      <point x="301" y="531"/>
      <point x="445" y="638" type="curve" smooth="yes"/>
      <point x="734" y="852" type="line" smooth="yes"/>
      <point x="851" y="939"/>
      <point x="932" y="1029"/>
      <point x="932" y="1169" type="curve"/>
      <point x="932" y="1334"/>
      <point x="799" y="1476"/>
      <point x="585" y="1476" type="curve" smooth="yes"/>
      <point x="365" y="1476"/>
      <point x="220" y="1350"/>
      <point x="220" y="1123" type="curve" smooth="yes"/>
      <point x="220" y="974"/>
      <point x="329" y="852"/>
      <point x="480" y="677" type="curve" smooth="yes"/>
      <point x="1044" y="0" type="line"/>
      <point x="1268" y="0" type="line"/>
      <point x="579" y="826" type="line" smooth="yes"/>
      <point x="478" y="941"/>
      <point x="407" y="1039"/>
      <point x="407" y="1129" type="curve" smooth="yes"/>
      <point x="407" y="1235"/>
      <point x="467" y="1326"/>
      <point x="584" y="1326" type="curve" smooth="yes"/>
      <point x="696" y="1326"/>
      <point x="759" y="1248"/>
      <point x="759" y="1169" type="curve"/>
      <point x="759" y="1069"/>
      <point x="712" y="1020"/>
    </contour>
  </outline>
</glyph>
<glyph name="parenright" format="2">
  <advance width="714"/>
  <unicode hex="0029"/>
  <outline>
    <contour>
      <point x="568" y="581" type="curve"/>
      <point x="568" y="591" type="line"/>
      <point x="568" y="1172"/>
      <point x="267" y="1538"/>
      <point x="78" y="1643" type="curve"/>
      <point x="39" y="1531" type="line"/>
      <point x="181" y="1414"/>
      <point x="382" y="1099"/>
      <point x="382" y="594" type="curve" smooth="yes"/>
      <point x="382" y="579" type="line"/>
      <point x="382" y="74"/>
      <point x="195" y="-240"/>
      <point x="39" y="-359" type="curve"/>
      <point x="78" y="-470" type="line"/>
      <point x="267" y="-364"/>
      <point x="568" y="-1"/>
    </contour>
  </outline>
</glyph>
<glyph name="asterisk" format="2">
  <advance width="882.39"/>
  <unicode hex="002A"/>
  <outline>
    <contour>
      <point x="329" y="984" type="line"/>
      <point x="129" y="708" type="line"/>
      <point x="255" y="617" type="line"/>
      <point x="435" y="899" type="line"/>
      <point x="619" y="610" type="line"/>
      <point x="745" y="703" type="line"/>
      <point x="548" y="975" type="line"/>
      <point x="854" y="1066" type="line"/>
      <point x="807" y="1218" type="line"/>
      <point x="511" y="1107" type="line"/>
      <point x="521" y="1457" type="line"/>
      <point x="367" y="1457" type="line"/>
      <point x="376" y="1112" type="line"/>
      <point x="75" y="1224" type="line"/>
      <point x="28" y="1075" type="line"/>
    </contour>
  </outline>
</glyph>
<glyph name="plus" format="2">
  <advance width="1161.92"/>
  <unicode hex="002B"/>
  <outline>
    <contour>
      <point x="1076" y="607" type="line"/>
      <point x="1076" y="780" type="line"/>
      <point x="78" y="780" type="line"/>
      <point x="78" y="607" type="line"/>
    </contour>
    <contour>
      <point x="671" y="146" type="line"/>
      <point x="671" y="1206" type="line"/>
      <point x="484" y="1206" type="line"/>
      <point x="484" y="146" type="line"/>
    </contour>
  </outline>
</glyph>
<glyph name="comma" format="2">
  <advance width="403.02"/>
  <unicode hex="002C"/>
  <outline>
    <contour>
      <point x="310" y="71" type="curve"/>
      <point x="310" y="219" type="line"/>
      <point x="127" y="219" type="line"/>
      <point x="127" y="68" type="line"/>
      <point x="127" y="-41"/>
      <point x="91" y="-130"/>
      <point x="28" y="-218" type="curve"/>
      <point x="134" y="-290" type="line"/>
      <point x="246" y="-200"/>
      <point x="310" y="-51"/>
    </contour>
  </outline>
</glyph>
<glyph name="zero" format="2">
  <advance width="1151.03"/>
  <unicode hex="0030"/>
  <outline>
    <contour>
      <point x="1035" y="621" type="curve"/>
      <point x="1035" y="844" type="line"/>
      <point x="1035" y="1319"/>
      <point x="856" y="1476"/>
      <point x="575" y="1476" type="curve" smooth="yes"/>
      <point x="295" y="1476"/>
      <point x="115" y="1319"/>
      <point x="115" y="844" type="curve"/>
      <point x="115" y="621" type="line"/>
      <point x="115" y="146"/>
      <point x="298" y="-20"/>
      <point x="577" y="-20" type="curve" smooth="yes"/>
      <point x="859" y="-20"/>
      <point x="1035" y="146"/>
    </contour>
    <contour>
      <point x="848" y="875" type="curve"/>
      <point x="848" y="592" type="line"/>
      <point x="848" y="266"/>
      <point x="756" y="130"/>
      <point x="577" y="130" type="curve" smooth="yes"/>
      <point x="401" y="130"/>
      <point x="302" y="266"/>
      <point x="302" y="592" type="curve" smooth="yes"/>
      <point x="302" y="875" type="line" smooth="yes"/>
      <point x="302" y="1203"/>
      <point x="399" y="1326"/>
      <point x="575" y="1326" type="curve" smooth="yes"/>
      <point x="753" y="1326"/>
      <point x="848" y="1203"/>
    </contour>
  </outline>
</glyph>
<glyph name="six" format="2">
  <advance width="1151.03"/>
  <unicode hex="0036"/>
  <outline>
    <contour>
      <point x="847" y="1458" type="line"/>
      <point x="831" y="1458" type="line"/>
      <point x="267" y="1458"/>
      <point x="133" y="1038"/>
      <point x="133" y="626" type="curve" smooth="yes"/>
      <point x="133" y="538" type="line" smooth="yes"/>
      <point x="133" y="267"/>
      <point x="286" y="-20"/>
      <point x="601" y="-20" type="curve" smooth="yes"/>
      <point x="897" y="-20"/>
      <point x="1053" y="199"/>
      <point x="1053" y="475" type="curve" smooth="yes"/>
      <point x="1053" y="715"/>
      <point x="926" y="955"/>
      <point x="636" y="955" type="curve" smooth="yes"/>
      <point x="423" y="955"/>
      <point x="245" y="833"/>
      <point x="207" y="536" type="curve"/>
      <point x="305" y="535" type="line"/>
      <point x="317" y="677"/>
      <point x="450" y="803"/>
      <point x="605" y="803" type="curve" smooth="yes"/>
      <point x="784" y="803"/>
      <point x="869" y="640"/>
      <point x="869" y="466" type="curve" smooth="yes"/>
      <point x="869" y="271"/>
      <point x="772" y="132"/>
      <point x="601" y="132" type="curve" smooth="yes"/>
      <point x="456" y="132"/>
      <point x="320" y="273"/>
      <point x="320" y="533" type="curve"/>
      <point x="320" y="747" type="line" smooth="yes"/>
      <point x="320" y="1022"/>
      <point x="439" y="1302"/>
      <point x="831" y="1302" type="curve" smooth="yes"/>
      <point x="847" y="1302" type="line"/>
    </contour>
  </outline>
</glyph>
<glyph name="eight" format="2">
  <advance width="1151.03"/>
  <unicode hex="0038"/>
  <outline>
    <contour>
      <point x="1039" y="128"/>
      <point x="1039" y="394" type="curve" smooth="yes"/>
      <point x="1039" y="624"/>
      <point x="842" y="792"/>
      <point x="574" y="792" type="curve" smooth="yes"/>
      <point x="303" y="792"/>
      <point x="113" y="624"/>
      <point x="113" y="394" type="curve" smooth="yes"/>
      <point x="113" y="128"/>
      <point x="314" y="-20"/>
      <point x="576" y="-20" type="curve" smooth="yes"/>
      <point x="837" y="-20"/>
    </contour>
    <contour>
      <point x="852" y="560"/>
      <point x="852" y="398" type="curve" smooth="yes"/>
      <point x="852" y="230"/>
      <point x="747" y="130"/>
      <point x="576" y="130" type="curve" smooth="yes"/>
      <point x="405" y="130"/>
      <point x="300" y="230"/>
      <point x="300" y="398" type="curve" smooth="yes"/>
      <point x="300" y="560"/>
      <point x="406" y="674"/>
      <point x="574" y="674" type="curve" smooth="yes"/>
      <point x="739" y="674"/>
    </contour>
    <contour>
      <point x="1005" y="864"/>
      <point x="1005" y="1077" type="curve" smooth="yes"/>
      <point x="1005" y="1331"/>
      <point x="824" y="1476"/>
      <point x="576" y="1476" type="curve" smooth="yes"/>
      <point x="327" y="1476"/>
      <point x="146" y="1331"/>
      <point x="146" y="1077" type="curve" smooth="yes"/>
      <point x="146" y="864"/>
      <point x="325" y="703"/>
      <point x="576" y="703" type="curve" smooth="yes"/>
      <point x="822" y="703"/>
    </contour>
    <contour>
      <point x="818" y="1219"/>
      <point x="818" y="1074" type="curve" smooth="yes"/>
      <point x="818" y="923"/>
      <point x="721" y="825"/>
      <point x="576" y="825" type="curve" smooth="yes"/>
      <point x="430" y="825"/>
      <point x="333" y="923"/>
      <point x="333" y="1074" type="curve" smooth="yes"/>
      <point x="333" y="1228"/>
      <point x="431" y="1326"/>
      <point x="576" y="1326" type="curve" smooth="yes"/>
      <point x="720" y="1326"/>
    </contour>
  </outline>
</glyph>
<glyph name="less" format="2">
  <advance width="1041.17"/>
  <unicode hex="003C"/>
  <outline>
    <contour>
      <point x="890" y="391" type="line"/>
      <point x="200" y="672" type="line"/>
      <point x="72" y="690" type="line"/>
      <point x="72" y="575" type="line"/>
      <point x="890" y="196" type="line"/>
    </contour>
    <contour>
      <point x="201" y="618" type="line"/>
      <point x="890" y="904" type="line"/>
      <point x="890" y="1098" type="line"/>
      <point x="72" y="720" type="line"/>
      <point x="72" y="604" type="line"/>
    </contour>
  </outline>
</glyph>
<glyph name="equal" format="2">
  <advance width="1123.8"/>
  <unicode hex="003D"/>
  <outline>
    <contour>
      <point x="986" y="815" type="line"/>
      <point x="986" y="974" type="line"/>
      <point x="152" y="974" type="line"/>
      <point x="152" y="815" type="line"/>
    </contour>
    <contour>
      <point x="986" y="400" type="line"/>
      <point x="986" y="559" type="line"/>
      <point x="152" y="559" type="line"/>
      <point x="152" y="400" type="line"/>
    </contour>
  </outline>
</glyph>
<glyph name="question" format="2">
  <advance width="968.53"/>
  <unicode hex="003F"/>
  <outline>
    <contour>
      <point x="357" y="410" type="curve"/>
      <point x="544" y="410" type="line"/>
      <point x="544" y="509"/>
      <point x="564" y="596"/>
      <point x="637" y="663" type="curve" smooth="yes"/>
      <point x="764" y="783"/>
      <point x="887" y="917"/>
      <point x="887" y="1096" type="curve" smooth="yes"/>
      <point x="887" y="1330"/>
      <point x="742" y="1476"/>
      <point x="487" y="1476" type="curve" smooth="yes"/>
      <point x="256" y="1476"/>
      <point x="78" y="1341"/>
      <point x="75" y="1115" type="curve"/>
      <point x="262" y="1115" type="line"/>
      <point x="262" y="1254"/>
      <point x="371" y="1316"/>
      <point x="487" y="1316" type="curve" smooth="yes"/>
      <point x="626" y="1316"/>
      <point x="701" y="1230"/>
      <point x="701" y="1091" type="curve" smooth="yes"/>
      <point x="701" y="954"/>
      <point x="620" y="890"/>
      <point x="529" y="796" type="curve" smooth="yes"/>
      <point x="402" y="666"/>
      <point x="359" y="602"/>
    </contour>
    <contour>
      <point x="349" y="152"/>
      <point x="349" y="93" type="curve" smooth="yes"/>
      <point x="349" y="34"/>
      <point x="387" y="-11"/>
      <point x="459" y="-11" type="curve" smooth="yes"/>
      <point x="531" y="-11"/>
      <point x="569" y="34"/>
      <point x="569" y="93" type="curve" smooth="yes"/>
      <point x="569" y="152"/>
      <point x="531" y="199"/>
      <point x="459" y="199" type="curve" smooth="yes"/>
      <point x="387" y="199"/>
    </contour>
  </outline>
</glyph>
<glyph name="A" format="2">
  <advance width="1337.66"/>
  <unicode hex="0041"/>
  <anchor x="686" y="0" name="bottom"/>
  <anchor x="1338" y="-407" name="bottom_dd"/>
  <anchor x="1273" y="0" name="ogonek"/>
  <anchor x="1307" y="0" name="right"/>
  <anchor x="361.99" y="1454" name="tonos"/>
  <anchor x="673" y="1601" name="top"/>
  <anchor x="1338" y="1601" name="top0315"/>
  <anchor x="1338" y="1600" name="top_dd"/>
  <outline>
    <contour>
      <point x="228" y="0" type="line"/>
      <point x="709" y="1328" type="line"/>
      <point x="712" y="1456" type="line"/>
      <point x="584" y="1456" type="line"/>
      <point x="28" y="0" type="line"/>
    </contour>
    <contour>
      <point x="629" y="1328" type="line"/>
      <point x="1112" y="0" type="line"/>
      <point x="1311" y="0" type="line"/>
      <point x="754" y="1456" type="line"/>
      <point x="627" y="1456" type="line"/>
    </contour>
    <contour>
      <point x="1088" y="381" type="line"/>
      <point x="1088" y="538" type="line"/>
      <point x="269" y="538" type="line"/>
      <point x="269" y="381" type="line"/>
    </contour>
  </outline>
</glyph>
<glyph name="B" format="2">
  <advance width="1275.95"/>
  <unicode hex="0042"/>
  <anchor x="614" y="10" name="bottom"/>
  <anchor x="1276" y="-407" name="bottom_dd"/>
  <anchor x="606" y="1612" name="top"/>
  <anchor x="1276" y="1612" name="top0315"/>
  <anchor x="1276" y="1600" name="top_dd"/>
  <outline>
    <contour>
      <point x="320" y="682" type="line"/>
      <point x="688" y="682" type="line"/>
      <point x="756" y="728" type="line"/>
      <point x="974" y="753"/>
      <point x="1122" y="888"/>
      <point x="1122" y="1068" type="curve"/>
      <point x="1122" y="1339"/>
      <point x="944" y="1456"/>
      <point x="647" y="1456" type="curve"/>
      <point x="169" y="1456" type="line"/>
      <point x="169" y="0" type="line"/>
      <point x="363" y="0" type="line"/>
      <point x="363" y="1299" type="line"/>
      <point x="647" y="1299" type="line"/>
      <point x="836" y="1299"/>
      <point x="928" y="1230"/>
      <point x="928" y="1070" type="curve"/>
      <point x="928" y="922"/>
      <point x="817" y="835"/>
      <point x="652" y="835" type="curve"/>
      <point x="318" y="835" type="line"/>
    </contour>
    <contour>
      <point x="243" y="0" type="line"/>
      <point x="679" y="0" type="line"/>
      <point x="970" y="0"/>
      <point x="1160" y="147"/>
      <point x="1160" y="420" type="curve" smooth="yes"/>
      <point x="1160" y="607"/>
      <point x="1042" y="761"/>
      <point x="832" y="779" type="curve"/>
      <point x="791" y="835" type="line"/>
      <point x="415" y="835" type="line"/>
      <point x="413" y="682" type="line"/>
      <point x="688" y="682" type="line" smooth="yes"/>
      <point x="883" y="682"/>
      <point x="966" y="580"/>
      <point x="966" y="418" type="curve" smooth="yes"/>
      <point x="966" y="258"/>
      <point x="861" y="156"/>
      <point x="679" y="156" type="curve" smooth="yes"/>
      <point x="354" y="156" type="line"/>
    </contour>
  </outline>
</glyph>
<glyph name="C" format="2">
  <advance width="1333.37"/>
  <unicode hex="0043"/>
  <anchor x="680" y="-10" name="bottom"/>
  <anchor x="1333" y="-407" name="bottom_dd"/>
  <anchor x="680" y="1633" name="top"/>
  <anchor x="1333" y="1633" name="top0315"/>
  <anchor x="1333" y="1600" name="top_dd"/>
  <outline>
    <contour>
      <point x="1241" y="462" type="curve"/>
      <point x="1047" y="462" type="line"/>
      <point x="1014" y="257"/>
      <point x="934" y="136"/>
      <point x="688" y="136" type="curve" smooth="yes"/>
      <point x="430" y="136"/>
      <point x="314" y="368"/>
      <point x="314" y="654" type="curve" smooth="yes"/>
      <point x="314" y="803" type="line" smooth="yes"/>
      <point x="314" y="1112"/>
      <point x="448" y="1319"/>
      <point x="706" y="1319" type="curve" smooth="yes"/>
      <point x="930" y="1319"/>
      <point x="1018" y="1193"/>
      <point x="1047" y="989" type="curve"/>
      <point x="1241" y="989" type="line"/>
      <point x="1211" y="1277"/>
      <point x="1036" y="1476"/>
      <point x="706" y="1476" type="curve" smooth="yes"/>
      <point x="345" y="1476"/>
      <point x="119" y="1208"/>
      <point x="119" y="801" type="curve"/>
      <point x="119" y="654" type="line"/>
      <point x="119" y="247"/>
      <point x="346" y="-20"/>
      <point x="688" y="-20" type="curve" smooth="yes"/>
      <point x="1039" y="-20"/>
      <point x="1210" y="187"/>
    </contour>
  </outline>
</glyph>
<glyph name="F" format="2">
  <advance width="1131.96"/>
  <unicode hex="0046"/>
  <anchor x="531" y="10" name="bottom"/>
  <anchor x="1132" y="-407" name="bottom_dd"/>
  <anchor x="333" y="337" name="cross"/>
  <anchor x="619" y="1612" name="top"/>
  <anchor x="1132" y="1612" name="top0315"/>
  <anchor x="1132" y="1600" name="top_dd"/>
  <outline>
    <contour>
      <point x="363" y="0" type="line"/>
      <point x="363" y="1456" type="line"/>
      <point x="169" y="1456" type="line"/>
      <point x="169" y="0" type="line"/>
    </contour>
    <contour>
      <point x="972" y="644" type="line"/>
      <point x="972" y="800" type="line"/>
      <point x="321" y="800" type="line"/>
      <point x="321" y="644" type="line"/>
    </contour>
    <contour>
      <point x="1071" y="1299" type="line"/>
      <point x="1071" y="1456" type="line"/>
      <point x="321" y="1456" type="line"/>
      <point x="321" y="1299" type="line"/>
    </contour>
  </outline>
</glyph>
<glyph name="G" format="2">
  <advance width="1395.08"/>
  <unicode hex="0047"/>
  <anchor x="730" y="-9" name="bottom"/>
  <anchor x="1395" y="-407" name="bottom_dd"/>
  <anchor x="671" y="1633" name="top"/>
  <anchor x="1395" y="1633" name="top0315"/>
  <anchor x="1395" y="1600" name="top_dd"/>
  <outline>
    <contour>
      <point x="1245" y="191" type="curve"/>
      <point x="1245" y="725" type="line"/>
      <point x="716" y="725" type="line"/>
      <point x="716" y="570" type="line"/>
      <point x="1052" y="570" type="line"/>
      <point x="1052" y="242" type="line"/>
      <point x="1013" y="198"/>
      <point x="937" y="136"/>
      <point x="731" y="136" type="curve" smooth="yes"/>
      <point x="483" y="136"/>
      <point x="317" y="335"/>
      <point x="317" y="671" type="curve" smooth="yes"/>
      <point x="317" y="788" type="line" smooth="yes"/>
      <point x="317" y="1115"/>
      <point x="438" y="1319"/>
      <point x="708" y="1319" type="curve" smooth="yes"/>
      <point x="930" y="1319"/>
      <point x="1024" y="1187"/>
      <point x="1051" y="1030" type="curve"/>
      <point x="1245" y="1030" type="line"/>
      <point x="1208" y="1288"/>
      <point x="1041" y="1476"/>
      <point x="707" y="1476" type="curve" smooth="yes"/>
      <point x="331" y="1476"/>
      <point x="122" y="1220"/>
      <point x="122" y="786" type="curve" smooth="yes"/>
      <point x="122" y="671" type="line" smooth="yes"/>
      <point x="122" y="236"/>
      <point x="375" y="-20"/>
      <point x="730" y="-20" type="curve" smooth="yes"/>
      <point x="1057" y="-20"/>
      <point x="1190" y="112"/>
    </contour>
  </outline>
</glyph>
<glyph name="H" format="2">
  <advance width="1460.75"/>
  <unicode hex="0048"/>
  <anchor x="714" y="10" name="bottom"/>
  <anchor x="1461" y="-407" name="bottom_dd"/>
  <anchor x="1288" y="0" name="right"/>
  <anchor x="-28" y="1457" name="tonos"/>
  <anchor x="712" y="1612" name="top"/>
  <anchor x="1461" y="1612" name="top0315"/>
  <anchor x="1461" y="1600" name="top_dd"/>
  <outline>
    <contour>
      <point x="1119" y="674" type="line"/>
      <point x="1119" y="830" type="line"/>
      <point x="333" y="830" type="line"/>
      <point x="333" y="674" type="line"/>
    </contour>
    <contour>
      <point x="363" y="0" type="line"/>
      <point x="363" y="1456" type="line"/>
      <point x="169" y="1456" type="line"/>
      <point x="169" y="0" type="line"/>
    </contour>
    <contour>
      <point x="1289" y="0" type="line"/>
      <point x="1289" y="1456" type="line"/>
      <point x="1095" y="1456" type="line"/>
      <point x="1095" y="0" type="line"/>
    </contour>
  </outline>
</glyph>
<glyph name="K" format="2">
  <advance width="1284.53"/>
  <unicode hex="004B"/>
  <anchor x="660" y="90" name="bottom"/>
  <anchor x="1285" y="-407" name="bottom_dd"/>
  <anchor x="276" y="1229" name="cross"/>
  <anchor x="1224" y="-3" name="right"/>
  <anchor x="605" y="1594" name="top"/>
  <anchor x="1285" y="1594" name="top0315"/>
  <anchor x="1285" y="1600" name="top_dd"/>
  <outline>
    <contour>
      <point x="363" y="0" type="line"/>
      <point x="363" y="1456" type="line"/>
      <point x="169" y="1456" type="line"/>
      <point x="169" y="0" type="line"/>
    </contour>
    <contour>
      <point x="637" y="777" type="line"/>
      <point x="1242" y="1456" type="line"/>
      <point x="1008" y="1456" type="line"/>
      <point x="520" y="912" type="line"/>
      <point x="265" y="629" type="line"/>
      <point x="297" y="425" type="line"/>
    </contour>
    <contour>
      <point x="516" y="710" type="line"/>
      <point x="1054" y="0" type="line"/>
      <point x="1286" y="0" type="line"/>
      <point x="632" y="863" type="line"/>
    </contour>
  </outline>
</glyph>
<glyph name="M" format="2">
  <advance width="1788.76"/>
  <unicode hex="004D"/>
  <anchor x="894" y="10" name="bottom"/>
  <anchor x="1789" y="-407" name="bottom_dd"/>
  <anchor x="1605" y="0" name="right"/>
  <anchor x="890" y="1601" name="top"/>
  <anchor x="1789" y="1601" name="top0315"/>
  <anchor x="1789" y="1600" name="top_dd"/>
  <outline>
    <contour>
      <point x="419" y="1456" type="line"/>
      <point x="230" y="1456" type="line"/>
      <point x="820" y="0" type="line"/>
      <point x="967" y="0" type="line"/>
      <point x="1558" y="1456" type="line"/>
      <point x="1369" y="1456" type="line"/>
      <point x="894" y="266" type="line"/>
    </contour>
    <contour>
      <point x="335" y="1456" type="line"/>
      <point x="169" y="1456" type="line"/>
      <point x="169" y="0" type="line"/>
      <point x="362" y="0" type="line"/>
      <point x="362" y="569" type="line"/>
    </contour>
    <contour>
      <point x="1619" y="1456" type="line"/>
      <point x="1453" y="1456" type="line"/>
      <point x="1426" y="569" type="line"/>
      <point x="1426" y="0" type="line"/>
      <point x="1619" y="0" type="line"/>
    </contour>
  </outline>
</glyph>
<glyph name="N" format="2">
  <advance width="1460.83"/>
  <unicode hex="004E"/>
  <anchor x="720" y="10" name="bottom"/>
  <anchor x="1461" y="-407" name="bottom_dd"/>
  <anchor x="1288" y="0" name="right"/>
  <anchor x="726" y="1601" name="top"/>
  <anchor x="1461" y="1601" name="top0315"/>
  <anchor x="1461" y="1600" name="top_dd"/>
  <outline>
    <contour>
      <point x="1289" y="0" type="line"/>
      <point x="1289" y="1456" type="line"/>
      <point x="1097" y="1456" type="line"/>
      <point x="1097" y="327" type="line"/>
      <point x="363" y="1456" type="line"/>
      <point x="169" y="1456" type="line"/>
      <point x="169" y="0" type="line"/>
      <point x="363" y="0" type="line"/>
      <point x="363" y="1126" type="line"/>
      <point x="1094" y="0" type="line"/>
    </contour>
  </outline>
</glyph>
<glyph name="P" format="2">
  <advance width="1292.79"/>
  <unicode hex="0050"/>
  <anchor x="530" y="10" name="bottom"/>
  <anchor x="1293" y="-407" name="bottom_dd"/>
  <anchor x="22" y="1454" name="tonos"/>
  <anchor x="606" y="1612" name="top"/>
  <anchor x="1293" y="1612" name="top0315"/>
  <anchor x="1293" y="1600" name="top_dd"/>
  <outline>
    <contour>
      <point x="319" y="571" type="line"/>
      <point x="707" y="571" type="line"/>
      <point x="1037" y="571"/>
      <point x="1218" y="731"/>
      <point x="1218" y="1012" type="curve"/>
      <point x="1218" y="1271"/>
      <point x="1037" y="1456"/>
      <point x="707" y="1456" type="curve"/>
      <point x="169" y="1456" type="line"/>
      <point x="169" y="0" type="line"/>
      <point x="363" y="0" type="line"/>
      <point x="363" y="1299" type="line"/>
      <point x="707" y="1299" type="line"/>
      <point x="932" y="1299"/>
      <point x="1024" y="1160"/>
      <point x="1024" y="1010" type="curve"/>
      <point x="1024" y="845"/>
      <point x="932" y="727"/>
      <point x="707" y="727" type="curve"/>
      <point x="319" y="727" type="line"/>
    </contour>
  </outline>
</glyph>
<glyph name="R" format="2">
  <advance width="1260.83"/>
  <unicode hex="0052"/>
  <anchor x="611" y="10" name="bottom"/>
  <anchor x="1261" y="-407" name="bottom_dd"/>
  <anchor x="610" y="1601" name="top"/>
  <anchor x="1261" y="1601" name="top0315"/>
  <anchor x="1261" y="1600" name="top_dd"/>
  <outline>
    <contour>
      <point x="651" y="1456" type="curve" smooth="yes"/>
      <point x="169" y="1456" type="line"/>
      <point x="169" y="0" type="line"/>
      <point x="363" y="0" type="line"/>
      <point x="363" y="1299" type="line"/>
      <point x="651" y="1299" type="line" smooth="yes"/>
      <point x="872" y="1299"/>
      <point x="967" y="1188"/>
      <point x="967" y="1019" type="curve" smooth="yes"/>
      <point x="967" y="868"/>
      <point x="863" y="746"/>
      <point x="656" y="746" type="curve" smooth="yes"/>
      <point x="316" y="746" type="line"/>
      <point x="318" y="590" type="line"/>
      <point x="770" y="590" type="line"/>
      <point x="824" y="611" type="line"/>
      <point x="1034" y="666"/>
      <point x="1162" y="819"/>
      <point x="1162" y="1019" type="curve" smooth="yes"/>
      <point x="1162" y="1303"/>
      <point x="979" y="1456"/>
    </contour>
    <contour>
      <point x="665" y="660" type="line"/>
      <point x="1018" y="0" type="line"/>
      <point x="1226" y="0" type="line"/>
      <point x="1226" y="12" type="line"/>
      <point x="868" y="660" type="line"/>
    </contour>
  </outline>
</glyph>
<glyph name="S" format="2">
  <advance width="1215.55"/>
  <unicode hex="0053"/>
  <anchor x="628" y="-1" name="bottom"/>
  <anchor x="1216" y="-407" name="bottom_dd"/>
  <anchor x="622" y="1603" name="top"/>
  <anchor x="1216" y="1603" name="top0315"/>
  <anchor x="1216" y="1600" name="top_dd"/>
  <outline>
    <contour>
      <point x="944" y="505"/>
      <point x="944" y="368" type="curve" smooth="yes"/>
      <point x="944" y="226"/>
      <point x="832" y="136"/>
      <point x="631" y="136" type="curve" smooth="yes"/>
      <point x="444" y="136"/>
      <point x="275" y="222"/>
      <point x="275" y="422" type="curve"/>
      <point x="81" y="422" type="line"/>
      <point x="81" y="131"/>
      <point x="362" y="-20"/>
      <point x="631" y="-20" type="curve" smooth="yes"/>
      <point x="939" y="-20"/>
      <point x="1139" y="133"/>
      <point x="1139" y="370" type="curve"/>
      <point x="1139" y="596"/>
      <point x="991" y="724"/>
      <point x="661" y="817" type="curve"/>
      <point x="422" y="884"/>
      <point x="322" y="960"/>
      <point x="322" y="1083" type="curve"/>
      <point x="322" y="1218"/>
      <point x="417" y="1319"/>
      <point x="621" y="1319" type="curve" smooth="yes"/>
      <point x="839" y="1319"/>
      <point x="941" y="1200"/>
      <point x="941" y="1036" type="curve"/>
      <point x="1136" y="1036" type="line"/>
      <point x="1136" y="1264"/>
      <point x="951" y="1476"/>
      <point x="621" y="1476" type="curve" smooth="yes"/>
      <point x="323" y="1476"/>
      <point x="127" y="1307"/>
      <point x="127" y="1080" type="curve"/>
      <point x="127" y="854"/>
      <point x="311" y="734"/>
      <point x="598" y="651" type="curve"/>
      <point x="873" y="571"/>
    </contour>
  </outline>
</glyph>
<glyph name="W" format="2">
  <advance width="1816.78"/>
  <unicode hex="0057"/>
  <anchor x="922" y="10" name="bottom"/>
  <anchor x="1817" y="-407" name="bottom_dd"/>
  <anchor x="924" y="1601" name="top"/>
  <anchor x="1817" y="1601" name="top0315"/>
  <anchor x="1817" y="1600" name="top_dd"/>
  <outline>
    <contour>
      <point x="840" y="1456" type="line"/>
      <point x="552" y="439" type="line"/>
      <point x="449" y="0" type="line"/>
      <point x="590" y="0" type="line"/>
      <point x="900" y="1063" type="line"/>
      <point x="982" y="1456" type="line"/>
    </contour>
    <contour>
      <point x="484" y="458" type="line"/>
      <point x="255" y="1456" type="line"/>
      <point x="61" y="1456" type="line"/>
      <point x="413" y="0" type="line"/>
      <point x="552" y="0" type="line"/>
    </contour>
    <contour>
      <point x="1578" y="1456" type="line"/>
      <point x="1354" y="459" type="line"/>
      <point x="1282" y="0" type="line"/>
      <point x="1421" y="0" type="line"/>
      <point x="1773" y="1456" type="line"/>
    </contour>
    <contour>
      <point x="1283" y="439" type="line"/>
      <point x="1003" y="1456" type="line"/>
      <point x="864" y="1456" type="line"/>
      <point x="945" y="1063" type="line"/>
      <point x="1244" y="0" type="line"/>
      <point x="1385" y="0" type="line"/>
    </contour>
  </outline>
</glyph>
<glyph name="X" format="2">
  <advance width="1284.88"/>
  <unicode hex="0058"/>
  <anchor x="645" y="10" name="bottom"/>
  <anchor x="1285" y="-407" name="bottom_dd"/>
  <anchor x="644" y="743" name="cross"/>
  <anchor x="1109.99" y="0" name="right"/>
  <anchor x="652.99" y="1612" name="top"/>
  <anchor x="1285" y="1612" name="top0315"/>
  <anchor x="1285" y="1600" name="top_dd"/>
  <outline>
    <contour>
      <point x="645" y="897" type="line"/>
      <point x="296" y="1456" type="line"/>
      <point x="68" y="1456" type="line"/>
      <point x="529" y="735" type="line"/>
      <point x="58" y="0" type="line"/>
      <point x="286" y="0" type="line"/>
      <point x="645" y="570" type="line"/>
      <point x="1002" y="0" type="line"/>
      <point x="1231" y="0" type="line"/>
      <point x="761" y="735" type="line"/>
      <point x="1220" y="1456" type="line"/>
      <point x="993" y="1456" type="line"/>
    </contour>
  </outline>
</glyph>
<glyph name="bracketleft" format="2">
  <advance width="544.56"/>
  <unicode hex="005B"/>
  <outline>
    <contour>
      <point x="524" y="1514" type="line"/>
      <point x="524" y="1664" type="line"/>
      <point x="146" y="1664" type="line"/>
      <point x="146" y="-312" type="line"/>
      <point x="524" y="-312" type="line"/>
      <point x="524" y="-162" type="line"/>
      <point x="333" y="-162" type="line"/>
      <point x="333" y="1514" type="line"/>
    </contour>
  </outline>
</glyph>
<glyph name="backslash" format="2">
  <advance width="841.34"/>
  <unicode hex="005C"/>
  <outline>
    <contour>
      <point x="41" y="1456" type="line"/>
      <point x="649" y="-125" type="line"/>
      <point x="826" y="-125" type="line"/>
      <point x="218" y="1456" type="line"/>
    </contour>
  </outline>
</glyph>
<glyph name="asciicircum" format="2">
  <advance width="856.28"/>
  <unicode hex="005E"/>
  <outline>
    <contour>
      <point x="237" y="729" type="line"/>
      <point x="439" y="1244" type="line"/>
      <point x="475" y="1456" type="line"/>
      <point x="363" y="1456" type="line"/>
      <point x="64" y="729" type="line"/>
    </contour>
    <contour>
      <point x="415" y="1244" type="line"/>
      <point x="616" y="729" type="line"/>
      <point x="789" y="729" type="line"/>
      <point x="491" y="1456" type="line"/>
      <point x="378" y="1456" type="line"/>
    </contour>
  </outline>
</glyph>
<glyph name="grave" format="2">
  <advance width="634.37"/>
  <unicode hex="0060"/>
  <outline>
    <contour>
      <point x="475" y="1243" type="line"/>
      <point x="281" y="1536" type="line"/>
      <point x="56" y="1536" type="line"/>
      <point x="315" y="1243" type="line"/>
    </contour>
  </outline>
</glyph>
<glyph name="c" format="2">
  <advance width="1072.67"/>
  <unicode hex="0063"/>
  <anchor x="532" y="-10" name="bottom"/>
  <anchor x="1073" y="-407" name="bottom_dd"/>
  <anchor x="532" y="1290" name="marktop"/>
  <anchor x="532" y="1290" name="top"/>
  <anchor x="1073" y="1290" name="top0315"/>
  <anchor x="1073" y="1600" name="top_dd"/>
  <outline>
    <contour>
      <point x="706" y="130"/>
      <point x="574" y="130" type="curve" smooth="yes"/>
      <point x="345" y="130"/>
      <point x="279" y="329"/>
      <point x="279" y="520" type="curve" smooth="yes"/>
      <point x="279" y="562" type="line" smooth="yes"/>
      <point x="279" y="751"/>
      <point x="347" y="952"/>
      <point x="574" y="952" type="curve"/>
      <point x="722" y="952"/>
      <point x="819" y="844"/>
      <point x="829" y="710" type="curve"/>
      <point x="1006" y="710" type="line"/>
      <point x="996" y="933"/>
      <point x="828" y="1102"/>
      <point x="574" y="1102" type="curve" smooth="yes"/>
      <point x="249" y="1102"/>
      <point x="92" y="853"/>
      <point x="92" y="562" type="curve" smooth="yes"/>
      <point x="92" y="520" type="line" smooth="yes"/>
      <point x="92" y="229"/>
      <point x="248" y="-20"/>
      <point x="574" y="-20" type="curve"/>
      <point x="804" y="-20"/>
      <point x="995" y="149"/>
      <point x="1006" y="342" type="curve"/>
      <point x="829" y="342" type="line"/>
      <point x="818" y="219"/>
    </contour>
  </outline>
</glyph>
<glyph name="e" format="2">
  <advance width="1086.6"/>
  <unicode hex="0065"/>
  <anchor x="568" y="0" name="bottom"/>
  <anchor x="1087" y="-407" name="bottom_dd"/>
  <anchor x="812" y="26" name="ogonek"/>
  <anchor x="911" y="654" name="rhotichook"/>
  <anchor x="565" y="1290" name="top"/>
  <anchor x="1087" y="1290" name="top0315"/>
  <anchor x="1087" y="1600" name="top_dd"/>
  <outline>
    <contour>
      <point x="288" y="-20"/>
      <point x="590" y="-20" type="curve"/>
      <point x="805" y="-20"/>
      <point x="928" y="82"/>
      <point x="998" y="189" type="curve"/>
      <point x="885" y="277" type="line"/>
      <point x="817" y="188"/>
      <point x="731" y="130"/>
      <point x="600" y="130" type="curve" smooth="yes"/>
      <point x="399" y="130"/>
      <point x="280" y="297"/>
      <point x="280" y="503" type="curve" smooth="yes"/>
      <point x="280" y="546" type="line" smooth="yes"/>
      <point x="280" y="805"/>
      <point x="398" y="952"/>
      <point x="566" y="952" type="curve"/>
      <point x="755" y="952"/>
      <point x="816" y="798"/>
      <point x="825" y="654" type="curve"/>
      <point x="825" y="640" type="line"/>
      <point x="204" y="640" type="line"/>
      <point x="204" y="490" type="line"/>
      <point x="1012" y="490" type="line"/>
      <point x="1012" y="573" type="line" smooth="yes"/>
      <point x="1012" y="875"/>
      <point x="877" y="1102"/>
      <point x="566" y="1102" type="curve" smooth="yes"/>
      <point x="323" y="1102"/>
      <point x="93" y="898"/>
      <point x="93" y="546" type="curve" smooth="yes"/>
      <point x="93" y="503" type="line" smooth="yes"/>
      <point x="93" y="199"/>
    </contour>
  </outline>
</glyph>
<glyph name="h" format="2">
  <advance width="1128.28"/>
  <unicode hex="0068"/>
  <anchor x="588" y="10" name="bottom"/>
  <anchor x="1128" y="-407" name="bottom_dd"/>
  <anchor x="285" y="1306" name="cross"/>
  <anchor x="992" y="0" name="right"/>
  <anchor x="501" y="1611" name="top"/>
  <anchor x="1128" y="1611" name="top0315"/>
  <anchor x="1128" y="1600" name="top_dd"/>
  <outline>
    <contour>
      <point x="327" y="0" type="line"/>
      <point x="327" y="1536" type="line"/>
      <point x="140" y="1536" type="line"/>
      <point x="140" y="0" type="line"/>
    </contour>
    <contour>
      <point x="205" y="586" type="curve"/>
      <point x="283" y="583" type="line"/>
      <point x="283" y="777"/>
      <point x="407" y="947"/>
      <point x="590" y="947" type="curve" smooth="yes"/>
      <point x="730" y="947"/>
      <point x="805" y="881"/>
      <point x="805" y="711" type="curve" smooth="yes"/>
      <point x="805" y="0" type="line"/>
      <point x="992" y="0" type="line"/>
      <point x="992" y="709" type="line" smooth="yes"/>
      <point x="992" y="992"/>
      <point x="858" y="1102"/>
      <point x="645" y="1102" type="curve" smooth="yes"/>
      <point x="383" y="1102"/>
      <point x="208" y="882"/>
    </contour>
  </outline>
</glyph>
<glyph name="i" format="2">
  <advance width="498.44"/>
  <unicode hex="0069"/>
  <anchor x="249" y="10" name="bottom"/>
  <anchor x="498" y="-407" name="bottom_dd"/>
  <anchor x="327" y="0" name="ogonek"/>
  <anchor x="278" y="654" name="rhotichook"/>
  <anchor x="252" y="1600" name="top"/>
  <anchor x="498" y="1600" name="top0315"/>
  <anchor x="498" y="1600" name="top_dd"/>
  <outline>
    <contour>
      <point x="343" y="0" type="line"/>
      <point x="343" y="1082" type="line"/>
      <point x="156" y="1082" type="line"/>
      <point x="156" y="0" type="line"/>
    </contour>
    <contour>
      <point x="142" y="1429"/>
      <point x="142" y="1370" type="curve" smooth="yes"/>
      <point x="142" y="1312"/>
      <point x="179" y="1266"/>
      <point x="251" y="1266" type="curve"/>
      <point x="323" y="1266"/>
      <point x="362" y="1312"/>
      <point x="362" y="1370" type="curve"/>
      <point x="362" y="1429"/>
      <point x="323" y="1476"/>
      <point x="251" y="1476" type="curve"/>
      <point x="179" y="1476"/>
    </contour>
  </outline>
</glyph>
<glyph name="j" format="2">
  <advance width="490.5"/>
  <unicode hex="006A"/>
  <anchor x="190" y="-459" name="bottom"/>
  <anchor x="491" y="-407" name="bottom_dd"/>
  <anchor x="223" y="1600" name="top"/>
  <anchor x="491" y="1600" name="top0315"/>
  <anchor x="491" y="1600" name="top_dd"/>
  <outline>
    <contour>
      <point x="333" y="1082" type="line"/>
      <point x="146" y="1082" type="line"/>
      <point x="146" y="-129" type="line"/>
      <point x="146" y="-240"/>
      <point x="101" y="-281"/>
      <point x="21" y="-281" type="curve" smooth="yes"/>
      <point x="-3" y="-281"/>
      <point x="-39" y="-278"/>
      <point x="-64" y="-272" type="curve"/>
      <point x="-65" y="-420" type="line"/>
      <point x="-34" y="-430"/>
      <point x="16" y="-437"/>
      <point x="50" y="-437" type="curve" smooth="yes"/>
      <point x="240" y="-437"/>
      <point x="333" y="-328"/>
      <point x="333" y="-129" type="curve"/>
    </contour>
    <contour>
      <point x="127" y="1429"/>
      <point x="127" y="1370" type="curve" smooth="yes"/>
      <point x="127" y="1312"/>
      <point x="164" y="1266"/>
      <point x="236" y="1266" type="curve" smooth="yes"/>
      <point x="308" y="1266"/>
      <point x="347" y="1312"/>
      <point x="347" y="1370" type="curve" smooth="yes"/>
      <point x="347" y="1429"/>
      <point x="308" y="1476"/>
      <point x="236" y="1476" type="curve" smooth="yes"/>
      <point x="164" y="1476"/>
    </contour>
  </outline>
</glyph>
<glyph name="l" format="2">
  <advance width="498.44"/>
  <unicode hex="006C"/>
  <anchor x="249" y="10" name="bottom"/>
  <anchor x="498" y="-407" name="bottom_dd"/>
  <anchor x="477" y="1536" name="caron"/>
  <anchor x="470" y="776" name="dot"/>
  <anchor x="564" y="1539" name="marktop"/>
  <anchor x="249" y="1697" name="top"/>
  <anchor x="498" y="1697" name="top0315"/>
  <anchor x="498" y="1600" name="top_dd"/>
  <outline>
    <contour>
      <point x="343" y="0" type="line"/>
      <point x="343" y="1536" type="line"/>
      <point x="156" y="1536" type="line"/>
      <point x="156" y="0" type="line"/>
    </contour>
  </outline>
</glyph>
<glyph name="n" format="2">
  <advance width="1131.01"/>
  <unicode hex="006E"/>
  <anchor x="563" y="10" name="bottom"/>
  <anchor x="1131.01" y="-407" name="bottom_dd"/>
  <anchor x="-28" y="1539" name="caron"/>
  <anchor x="573" y="1290" name="marktop"/>
  <anchor x="991" y="0" name="right"/>
  <anchor x="573" y="1290" name="top"/>
  <anchor x="1131.01" y="1290" name="top0315"/>
  <anchor x="1131.01" y="1600" name="top_dd"/>
  <outline>
    <contour>
      <point x="327" y="0" type="line"/>
      <point x="327" y="851" type="line"/>
      <point x="317" y="1082" type="line"/>
      <point x="140" y="1082" type="line"/>
      <point x="140" y="0" type="line"/>
    </contour>
    <contour>
      <point x="205" y="586" type="curve"/>
      <point x="283" y="583" type="line"/>
      <point x="283" y="777"/>
      <point x="407" y="947"/>
      <point x="590" y="947" type="curve" smooth="yes"/>
      <point x="730" y="947"/>
      <point x="805" y="881"/>
      <point x="805" y="711" type="curve" smooth="yes"/>
      <point x="805" y="0" type="line"/>
      <point x="992" y="0" type="line"/>
      <point x="992" y="709" type="line" smooth="yes"/>
      <point x="992" y="992"/>
      <point x="858" y="1102"/>
      <point x="645" y="1102" type="curve" smooth="yes"/>
      <point x="383" y="1102"/>
      <point x="208" y="882"/>
    </contour>
  </outline>
</glyph>
<glyph name="o" format="2">
  <advance width="1168.86"/>
  <unicode hex="006F"/>
  <anchor x="584" y="-1" name="bottom"/>
  <anchor x="1169" y="-407" name="bottom_dd"/>
  <anchor x="993.99" y="654" name="rhotichook"/>
  <anchor x="575" y="1290" name="top"/>
  <anchor x="1169" y="1290" name="top0315"/>
  <anchor x="1169" y="1600" name="top_dd"/>
  <outline>
    <contour>
      <point x="92" y="552" type="curve"/>
      <point x="92" y="529" type="line"/>
      <point x="92" y="216"/>
      <point x="281" y="-20"/>
      <point x="585" y="-20" type="curve" smooth="yes"/>
      <point x="889" y="-20"/>
      <point x="1077" y="216"/>
      <point x="1077" y="529" type="curve"/>
      <point x="1077" y="552" type="line"/>
      <point x="1077" y="865"/>
      <point x="889" y="1102"/>
      <point x="583" y="1102" type="curve" smooth="yes"/>
      <point x="281" y="1102"/>
      <point x="92" y="865"/>
    </contour>
    <contour>
      <point x="279" y="529" type="curve"/>
      <point x="279" y="552" type="line"/>
      <point x="279" y="765"/>
      <point x="380" y="952"/>
      <point x="583" y="952" type="curve" smooth="yes"/>
      <point x="788" y="952"/>
      <point x="890" y="765"/>
      <point x="890" y="552" type="curve"/>
      <point x="890" y="529" type="line"/>
      <point x="890" y="314"/>
      <point x="788" y="130"/>
      <point x="585" y="130" type="curve" smooth="yes"/>
      <point x="380" y="130"/>
      <point x="279" y="314"/>
    </contour>
  </outline>
</glyph>
<glyph name="r" format="2">
  <advance width="694.1"/>
  <unicode hex="0072"/>
  <anchor x="246" y="11" name="bottom"/>
  <anchor x="694" y="-407" name="bottom_dd"/>
  <anchor x="408" y="1290" name="top"/>
  <anchor x="694" y="1290" name="top0315"/>
  <anchor x="694" y="1600" name="top_dd"/>
  <outline>
    <contour>
      <point x="327" y="0" type="line"/>
      <point x="327" y="912" type="line"/>
      <point x="322" y="1082" type="line"/>
      <point x="140" y="1082" type="line"/>
      <point x="140" y="0" type="line"/>
    </contour>
    <contour>
      <point x="664" y="917" type="curve"/>
      <point x="664" y="1088" type="line"/>
      <point x="651" y="1094"/>
      <point x="607" y="1102"/>
      <point x="582" y="1102" type="curve"/>
      <point x="348" y="1102"/>
      <point x="246" y="884"/>
      <point x="246" y="623" type="curve"/>
      <point x="299" y="653" type="line"/>
      <point x="315" y="811"/>
      <point x="402" y="925"/>
      <point x="573" y="925" type="curve"/>
      <point x="608" y="925"/>
      <point x="632" y="923"/>
    </contour>
  </outline>
</glyph>
<glyph name="s" format="2">
  <advance width="1057.22"/>
  <unicode hex="0073"/>
  <anchor x="563" y="-10" name="bottom"/>
  <anchor x="1057" y="-407" name="bottom_dd"/>
  <anchor x="563" y="1290" name="top"/>
  <anchor x="1057" y="1290" name="top0315"/>
  <anchor x="1057" y="1600" name="top_dd"/>
  <outline>
    <contour>
      <point x="770" y="367"/>
      <point x="770" y="287" type="curve" smooth="yes"/>
      <point x="770" y="198"/>
      <point x="689" y="130"/>
      <point x="538" y="130" type="curve" smooth="yes"/>
      <point x="423" y="130"/>
      <point x="291" y="180"/>
      <point x="282" y="333" type="curve"/>
      <point x="95" y="333" type="line"/>
      <point x="95" y="154"/>
      <point x="251" y="-20"/>
      <point x="538" y="-20" type="curve" smooth="yes"/>
      <point x="791" y="-20"/>
      <point x="957" y="111"/>
      <point x="957" y="300" type="curve"/>
      <point x="957" y="475"/>
      <point x="833" y="563"/>
      <point x="568" y="624" type="curve" smooth="yes"/>
      <point x="364" y="669"/>
      <point x="319" y="711"/>
      <point x="319" y="792" type="curve"/>
      <point x="319" y="871"/>
      <point x="380" y="952"/>
      <point x="533" y="952" type="curve" smooth="yes"/>
      <point x="678" y="952"/>
      <point x="759" y="854"/>
      <point x="759" y="765" type="curve"/>
      <point x="946" y="765" type="line"/>
      <point x="946" y="951"/>
      <point x="793" y="1102"/>
      <point x="533" y="1102" type="curve" smooth="yes"/>
      <point x="290" y="1102"/>
      <point x="132" y="957"/>
      <point x="132" y="786" type="curve"/>
      <point x="132" y="608"/>
      <point x="282" y="525"/>
      <point x="522" y="475" type="curve" smooth="yes"/>
      <point x="735" y="431"/>
    </contour>
  </outline>
</glyph>
<glyph name="y" format="2">
  <advance width="968.9"/>
  <unicode hex="0079"/>
  <anchor x="712" y="-158" name="bottom"/>
  <anchor x="969" y="-407" name="bottom_dd"/>
  <anchor x="508" y="1290" name="marktop"/>
  <anchor x="738" y="654" name="rhotichook"/>
  <anchor x="508" y="1290" name="top"/>
  <anchor x="969" y="1290" name="top0315"/>
  <anchor x="969" y="1600" name="top_dd"/>
  <outline>
    <contour>
      <point x="745" y="1082" type="line"/>
      <point x="444" y="112" type="line"/>
      <point x="367" y="-99" type="line" smooth="yes"/>
      <point x="323" y="-232"/>
      <point x="259" y="-277"/>
      <point x="134" y="-277" type="curve" smooth="yes"/>
      <point x="124" y="-277"/>
      <point x="95" y="-274"/>
      <point x="84" y="-272" type="curve"/>
      <point x="84" y="-421" type="line"/>
      <point x="104" y="-427"/>
      <point x="159" y="-437"/>
      <point x="189" y="-437" type="curve" smooth="yes"/>
      <point x="385" y="-437"/>
      <point x="471" y="-274"/>
      <point x="510" y="-167" type="curve" smooth="yes"/>
      <point x="944" y="1082" type="line"/>
    </contour>
    <contour>
      <point x="505" y="241" type="line"/>
      <point x="226" y="1082" type="line"/>
      <point x="22" y="1082" type="line"/>
      <point x="419" y="-21" type="line"/>
      <point x="553" y="46" type="line"/>
    </contour>
  </outline>
</glyph>
<glyph name="bar" format="2">
  <advance width="500.64"/>
  <unicode hex="007C"/>
  <outline>
    <contour>
      <point x="326" y="-270" type="line"/>
      <point x="326" y="1456" type="line"/>
      <point x="176" y="1456" type="line"/>
      <point x="176" y="-270" type="line"/>
    </contour>
  </outline>
</glyph>
<glyph name="exclamdown" format="2">
  <advance width="500.64"/>
  <unicode hex="00A1"/>
  <outline>
    <contour>
      <point x="171" y="684" type="line"/>
      <point x="157" y="-361" type="line"/>
      <point x="353" y="-361" type="line"/>
      <point x="339" y="684" type="line"/>
    </contour>
    <contour>
      <point x="359" y="938"/>
      <point x="359" y="997" type="curve" smooth="yes"/>
      <point x="359" y="1055"/>
      <point x="322" y="1101"/>
      <point x="250" y="1101" type="curve" smooth="yes"/>
      <point x="178" y="1101"/>
      <point x="139" y="1055"/>
      <point x="139" y="997" type="curve" smooth="yes"/>
      <point x="139" y="938"/>
      <point x="178" y="891"/>
      <point x="250" y="891" type="curve" smooth="yes"/>
      <point x="322" y="891"/>
    </contour>
  </outline>
</glyph>
<glyph name="brokenbar" format="2">
  <advance width="492.64"/>
  <unicode hex="00A6"/>
  <outline>
    <contour>
      <point x="147" y="-270" type="line"/>
      <point x="334" y="-270" type="line"/>
      <point x="334" y="521" type="line"/>
      <point x="147" y="521" type="line"/>
    </contour>
    <contour>
      <point x="334" y="698" type="line"/>
      <point x="334" y="1456" type="line"/>
      <point x="147" y="1456" type="line"/>
      <point x="147" y="698" type="line"/>
    </contour>
  </outline>
</glyph>
<glyph name="section" format="2">
  <advance width="1256.67"/>
  <unicode hex="00A7"/>
  <outline>
    <contour>
      <point x="699" y="226" type="curve"/>
      <point x="699" y="109" type="line"/>
      <point x="969" y="109"/>
      <point x="1146" y="229"/>
      <point x="1146" y="431" type="curve"/>
      <point x="1146" y="680"/>
      <point x="975" y="772"/>
      <point x="677" y="854" type="curve" smooth="yes"/>
      <point x="396" y="932"/>
      <point x="328" y="979"/>
      <point x="328" y="1113" type="curve"/>
      <point x="328" y="1229"/>
      <point x="422" y="1326"/>
      <point x="631" y="1326" type="curve" smooth="yes"/>
      <point x="829" y="1326"/>
      <point x="936" y="1200"/>
      <point x="936" y="1046" type="curve"/>
      <point x="1123" y="1046" type="line"/>
      <point x="1123" y="1324"/>
      <point x="936" y="1477"/>
      <point x="631" y="1477" type="curve" smooth="yes"/>
      <point x="333" y="1477"/>
      <point x="141" y="1332"/>
      <point x="141" y="1111" type="curve"/>
      <point x="141" y="862"/>
      <point x="313" y="770"/>
      <point x="603" y="692" type="curve" smooth="yes"/>
      <point x="875" y="610"/>
      <point x="959" y="553"/>
      <point x="959" y="428" type="curve"/>
      <point x="959" y="311"/>
      <point x="864" y="226"/>
    </contour>
    <contour>
      <point x="525" y="753" type="curve"/>
      <point x="525" y="874" type="line"/>
      <point x="264" y="874"/>
      <point x="96" y="747"/>
      <point x="96" y="551" type="curve" smooth="yes"/>
      <point x="96" y="302"/>
      <point x="271" y="205"/>
      <point x="563" y="127" type="curve"/>
      <point x="833" y="46"/>
      <point x="914" y="-7"/>
      <point x="914" y="-131" type="curve" smooth="yes"/>
      <point x="914" y="-252"/>
      <point x="805" y="-345"/>
      <point x="613" y="-345" type="curve" smooth="yes"/>
      <point x="456" y="-345"/>
      <point x="277" y="-275"/>
      <point x="277" y="-62" type="curve"/>
      <point x="90" y="-64" type="line"/>
      <point x="90" y="-388"/>
      <point x="356" y="-495"/>
      <point x="613" y="-495" type="curve" smooth="yes"/>
      <point x="908" y="-495"/>
      <point x="1101" y="-361"/>
      <point x="1101" y="-129" type="curve" smooth="yes"/>
      <point x="1101" y="120"/>
      <point x="932" y="207"/>
      <point x="637" y="289" type="curve" smooth="yes"/>
      <point x="352" y="368"/>
      <point x="283" y="418"/>
      <point x="283" y="553" type="curve" smooth="yes"/>
      <point x="283" y="668"/>
      <point x="359" y="753"/>
    </contour>
  </outline>
</glyph>
<glyph name="ordfeminine" format="2">
  <advance width="916.2"/>
  <unicode hex="00AA"/>
  <outline>
    <contour>
      <point x="594" y="1202" type="curve"/>
      <point x="594" y="862" type="line"/>
      <point x="594" y="807"/>
      <point x="603" y="753"/>
      <point x="618" y="706" type="curve"/>
      <point x="784" y="706" type="line"/>
      <point x="766" y="764"/>
      <point x="758" y="822"/>
      <point x="758" y="887" type="curve" smooth="yes"/>
      <point x="758" y="1201" type="line"/>
      <point x="758" y="1384"/>
      <point x="643" y="1477"/>
      <point x="471" y="1477" type="curve" smooth="yes"/>
      <point x="284" y="1477"/>
      <point x="162" y="1379"/>
      <point x="162" y="1244" type="curve"/>
      <point x="324" y="1231" type="line"/>
      <point x="324" y="1300"/>
      <point x="379" y="1337"/>
      <point x="471" y="1337" type="curve" smooth="yes"/>
      <point x="554" y="1337"/>
      <point x="594" y="1289"/>
    </contour>
    <contour>
      <point x="636" y="1038" type="line"/>
      <point x="635" y="1149" type="line"/>
      <point x="486" y="1149" type="line"/>
      <point x="259" y="1149"/>
      <point x="147" y="1065"/>
      <point x="147" y="918" type="curve" smooth="yes"/>
      <point x="147" y="781"/>
      <point x="236" y="692"/>
      <point x="396" y="692" type="curve" smooth="yes"/>
      <point x="532" y="692"/>
      <point x="611" y="772"/>
      <point x="640" y="838" type="curve"/>
      <point x="623" y="949" type="line"/>
      <point x="623" y="897"/>
      <point x="521" y="828"/>
      <point x="435" y="828" type="curve" smooth="yes"/>
      <point x="350" y="828"/>
      <point x="311" y="864"/>
      <point x="311" y="922" type="curve" smooth="yes"/>
      <point x="311" y="986"/>
      <point x="366" y="1038"/>
      <point x="487" y="1038" type="curve"/>
    </contour>
  </outline>
</glyph>
<glyph name="registered" format="2">
  <advance width="1609.39"/>
  <unicode hex="00AE"/>
  <outline>
    <contour>
      <point x="609" y="655" type="line"/>
      <point x="826" y="655" type="line"/>
      <point x="865" y="655"/>
      <point x="846" y="655"/>
      <point x="881" y="676" type="curve" smooth="yes"/>
      <point x="885" y="676"/>
      <point x="890" y="689"/>
      <point x="894" y="689" type="curve" smooth="yes"/>
      <point x="1033" y="727"/>
      <point x="1110" y="802"/>
      <point x="1110" y="910" type="curve"/>
      <point x="1110" y="1081"/>
      <point x="986" y="1165"/>
      <point x="788" y="1165" type="curve"/>
      <point x="511" y="1165" type="line"/>
      <point x="511" y="317" type="line"/>
      <point x="653" y="317" type="line"/>
      <point x="653" y="1039" type="line"/>
      <point x="788" y="1039" type="line"/>
      <point x="923" y="1039"/>
      <point x="969" y="1004"/>
      <point x="969" y="904" type="curve"/>
      <point x="969" y="825"/>
      <point x="893" y="784"/>
      <point x="809" y="782" type="curve"/>
      <point x="607" y="782" type="line"/>
    </contour>
    <contour>
      <point x="836" y="745" type="curve"/>
      <point x="816" y="655" type="line"/>
      <point x="923" y="655"/>
      <point x="963" y="610"/>
      <point x="963" y="513" type="curve"/>
      <point x="963" y="461" type="line"/>
      <point x="963" y="432"/>
      <point x="963" y="351"/>
      <point x="976" y="317" type="curve"/>
      <point x="1122" y="317" type="line"/>
      <point x="1122" y="333" type="line"/>
      <point x="1110" y="363"/>
      <point x="1105" y="410"/>
      <point x="1105" y="460" type="curve"/>
      <point x="1105" y="514" type="line"/>
      <point x="1105" y="647"/>
      <point x="1043" y="745"/>
    </contour>
    <contour>
      <point x="206" y="373"/>
      <point x="206" y="729" type="curve" smooth="yes"/>
      <point x="206" y="1085"/>
      <point x="472" y="1357"/>
      <point x="800" y="1357" type="curve" smooth="yes"/>
      <point x="1127" y="1357"/>
      <point x="1393" y="1085"/>
      <point x="1393" y="729" type="curve" smooth="yes"/>
      <point x="1393" y="373"/>
      <point x="1127" y="98"/>
      <point x="800" y="98" type="curve" smooth="yes"/>
      <point x="472" y="98"/>
    </contour>
    <contour>
      <point x="90" y="1152"/>
      <point x="90" y="729" type="curve" smooth="yes"/>
      <point x="90" y="306"/>
      <point x="408" y="-21"/>
      <point x="800" y="-21" type="curve" smooth="yes"/>
      <point x="1192" y="-21"/>
      <point x="1510" y="306"/>
      <point x="1510" y="729" type="curve" smooth="yes"/>
      <point x="1510" y="1152"/>
      <point x="1192" y="1476"/>
      <point x="800" y="1476" type="curve" smooth="yes"/>
      <point x="408" y="1476"/>
    </contour>
  </outline>
</glyph>
<glyph name="plusminus" format="2">
  <advance width="1095.2"/>
  <unicode hex="00B1"/>
  <outline>
    <contour>
      <point x="1013" y="704" type="line"/>
      <point x="1013" y="854" type="line"/>
      <point x="97" y="854" type="line"/>
      <point x="97" y="704" type="line"/>
    </contour>
    <contour>
      <point x="651" y="289" type="line"/>
      <point x="651" y="1267" type="line"/>
      <point x="482" y="1267" type="line"/>
      <point x="482" y="289" type="line"/>
    </contour>
    <component base="minus" xOffset="-33" yOffset="-651"/>
  </outline>
</glyph>
<glyph name="mu" format="2">
  <advance width="1129"/>
  <unicode hex="00B5"/>
  <outline>
    <contour>
      <point x="136" y="629" type="line"/>
      <point x="122" y="-416" type="line"/>
      <point x="318" y="-416" type="line"/>
      <point x="304" y="629" type="line"/>
    </contour>
    <contour>
      <point x="802" y="1082" type="line"/>
      <point x="802" y="250" type="line"/>
      <point x="811" y="0" type="line"/>
      <point x="989" y="0" type="line"/>
      <point x="989" y="1082" type="line"/>
    </contour>
    <contour>
      <point x="915" y="480" type="curve"/>
      <point x="837" y="478" type="line"/>
      <point x="837" y="287"/>
      <point x="756" y="136"/>
      <point x="521" y="136" type="curve" smooth="yes"/>
      <point x="421" y="136"/>
      <point x="323" y="186"/>
      <point x="323" y="382" type="curve"/>
      <point x="323" y="1082" type="line"/>
      <point x="136" y="1082" type="line"/>
      <point x="136" y="384" type="line"/>
      <point x="136" y="96"/>
      <point x="279" y="-20"/>
      <point x="491" y="-20" type="curve" smooth="yes"/>
      <point x="802" y="-20"/>
      <point x="915" y="192"/>
    </contour>
  </outline>
</glyph>
<glyph name="paragraph" format="2">
  <advance width="1002.42"/>
  <unicode hex="00B6"/>
  <outline>
    <contour>
      <point x="646" y="0" type="line"/>
      <point x="834" y="0" type="line"/>
      <point x="834" y="1456" type="line"/>
      <point x="559" y="1456" type="line" smooth="yes"/>
      <point x="241" y="1456"/>
      <point x="67" y="1256"/>
      <point x="67" y="988" type="curve" smooth="yes"/>
      <point x="67" y="718"/>
      <point x="241" y="520"/>
      <point x="559" y="520" type="curve" smooth="yes"/>
      <point x="646" y="520" type="line"/>
    </contour>
  </outline>
</glyph>
<glyph name="periodcentered" format="2">
  <advance width="535.7"/>
  <unicode hex="00B7"/>
  <outline>
    <contour>
      <point x="147" y="792"/>
      <point x="147" y="729" type="curve" smooth="yes"/>
      <point x="147" y="668"/>
      <point x="187" y="620"/>
      <point x="262" y="620" type="curve" smooth="yes"/>
      <point x="338" y="620"/>
      <point x="378" y="668"/>
      <point x="378" y="729" type="curve" smooth="yes"/>
      <point x="378" y="792"/>
      <point x="338" y="840"/>
      <point x="262" y="840" type="curve" smooth="yes"/>
      <point x="187" y="840"/>
    </contour>
  </outline>
</glyph>
<glyph name="ae" format="2">
  <advance width="1729.54"/>
  <unicode hex="00E6"/>
  <anchor x="859" y="1291" name="top"/>
  <anchor x="1730" y="1291" name="top0315"/>
  <anchor x="1730" y="1600" name="top_dd"/>
  <outline>
    <contour>
      <point x="748" y="720" type="curve"/>
      <point x="748" y="183" type="line"/>
      <point x="930" y="218" type="line"/>
      <point x="930" y="718" type="line"/>
      <point x="930" y="973"/>
      <point x="770" y="1102"/>
      <point x="536" y="1102" type="curve" smooth="yes"/>
      <point x="280" y="1102"/>
      <point x="106" y="965"/>
      <point x="106" y="778" type="curve"/>
      <point x="292" y="760" type="line"/>
      <point x="292" y="863"/>
      <point x="387" y="952"/>
      <point x="536" y="952" type="curve" smooth="yes"/>
      <point x="673" y="952"/>
      <point x="748" y="863"/>
    </contour>
    <contour>
      <point x="790" y="497" type="line"/>
      <point x="790" y="635" type="line"/>
      <point x="527" y="635" type="line"/>
      <point x="233" y="635"/>
      <point x="78" y="514"/>
      <point x="78" y="304" type="curve" smooth="yes"/>
      <point x="78" y="107"/>
      <point x="205" y="-21"/>
      <point x="433" y="-21" type="curve" smooth="yes"/>
      <point x="687" y="-21"/>
      <point x="835" y="97"/>
      <point x="888" y="195" type="curve"/>
      <point x="791" y="338" type="line"/>
      <point x="789" y="256"/>
      <point x="615" y="129"/>
      <point x="470" y="129" type="curve" smooth="yes"/>
      <point x="330" y="129"/>
      <point x="265" y="204"/>
      <point x="265" y="300" type="curve" smooth="yes"/>
      <point x="265" y="404"/>
      <point x="355" y="497"/>
      <point x="529" y="497" type="curve"/>
    </contour>
    <contour>
      <point x="936" y="-21"/>
      <point x="1263" y="-21" type="curve"/>
      <point x="1477" y="-21"/>
      <point x="1599" y="66"/>
      <point x="1643" y="102" type="curve"/>
      <point x="1578" y="237" type="line"/>
      <point x="1511" y="192"/>
      <point x="1421" y="130"/>
      <point x="1263" y="130" type="curve" smooth="yes"/>
      <point x="1033" y="130"/>
      <point x="934" y="305"/>
      <point x="934" y="520" type="curve" smooth="yes"/>
      <point x="934" y="564" type="line" smooth="yes"/>
      <point x="934" y="778"/>
      <point x="1036" y="952"/>
      <point x="1218" y="952" type="curve"/>
      <point x="1405" y="952"/>
      <point x="1474" y="823"/>
      <point x="1474" y="671" type="curve"/>
      <point x="1474" y="640" type="line"/>
      <point x="857" y="640" type="line"/>
      <point x="857" y="499" type="line"/>
      <point x="1661" y="499" type="line"/>
      <point x="1661" y="616" type="line" smooth="yes"/>
      <point x="1661" y="915"/>
      <point x="1506" y="1102"/>
      <point x="1218" y="1102" type="curve" smooth="yes"/>
      <point x="955" y="1104"/>
      <point x="758" y="880"/>
      <point x="758" y="564" type="curve" smooth="yes"/>
      <point x="758" y="520" type="line" smooth="yes"/>
      <point x="758" y="205"/>
    </contour>
  </outline>
</glyph>
<glyph name="eth" format="2">
  <advance width="1201.2"/>
  <unicode hex="00F0"/>
  <outline>
    <contour>
      <point x="312" y="1581" type="curve"/>
      <point x="254" y="1422" type="line"/>
      <point x="595" y="1333"/>
      <point x="883" y="1103"/>
      <point x="883" y="635" type="curve" smooth="yes"/>
      <point x="883" y="535" type="line" smooth="yes"/>
      <point x="883" y="304"/>
      <point x="777" y="131"/>
      <point x="606" y="131" type="curve" smooth="yes"/>
      <point x="418" y="131"/>
      <point x="313" y="303"/>
      <point x="313" y="468" type="curve"/>
      <point x="313" y="688"/>
      <point x="424" y="827"/>
      <point x="618" y="827" type="curve"/>
      <point x="809" y="827"/>
      <point x="903" y="703"/>
      <point x="903" y="614" type="curve"/>
      <point x="973" y="613" type="line"/>
      <point x="973" y="794"/>
      <point x="799" y="978"/>
      <point x="574" y="978" type="curve"/>
      <point x="316" y="978"/>
      <point x="126" y="776"/>
      <point x="126" y="468" type="curve"/>
      <point x="126" y="196"/>
      <point x="321" y="-20"/>
      <point x="602" y="-20" type="curve" smooth="yes"/>
      <point x="873" y="-20"/>
      <point x="1070" y="206"/>
      <point x="1070" y="535" type="curve"/>
      <point x="1070" y="633" type="line"/>
      <point x="1070" y="1136"/>
      <point x="762" y="1479"/>
    </contour>
    <contour>
      <point x="451" y="1053" type="line"/>
      <point x="988" y="1417" type="line"/>
      <point x="915" y="1516" type="line"/>
      <point x="377" y="1152" type="line"/>
    </contour>
  </outline>
</glyph>
<glyph name="thorn" format="2">
  <advance width="1181.06"/>
  <unicode hex="00FE"/>
  <outline>
    <contour>
      <point x="336" y="-416" type="line"/>
      <point x="336" y="1536" type="line"/>
      <point x="149" y="1536" type="line"/>
      <point x="149" y="-416" type="line"/>
    </contour>
    <contour>
      <point x="1065" y="529" type="curve" smooth="yes"/>
      <point x="1065" y="550" type="line"/>
      <point x="1065" y="880"/>
      <point x="914" y="1102"/>
      <point x="642" y="1102" type="curve" smooth="yes"/>
      <point x="369" y="1102"/>
      <point x="228" y="905"/>
      <point x="196" y="588" type="curve"/>
      <point x="196" y="472" type="line"/>
      <point x="227" y="169"/>
      <point x="368" y="-20"/>
      <point x="645" y="-20" type="curve" smooth="yes"/>
      <point x="913" y="-20"/>
      <point x="1065" y="213"/>
    </contour>
    <contour>
      <point x="878" y="550" type="curve" smooth="yes"/>
      <point x="878" y="529" type="line"/>
      <point x="878" y="313"/>
      <point x="788" y="130"/>
      <point x="589" y="130" type="curve" smooth="yes"/>
      <point x="406" y="130"/>
      <point x="327" y="258"/>
      <point x="287" y="399" type="curve"/>
      <point x="287" y="660" type="line"/>
      <point x="317" y="807"/>
      <point x="402" y="947"/>
      <point x="587" y="947" type="curve" smooth="yes"/>
      <point x="788" y="947"/>
      <point x="878" y="766"/>
    </contour>
  </outline>
</glyph>
<glyph name="dotlessi" format="2">
  <advance width="507.92"/>
  <unicode hex="0131"/>
  <anchor x="249" y="10" name="bottom"/>
  <anchor x="278" y="654" name="rhotichook"/>
  <anchor x="253" y="1288" name="top"/>
  <anchor x="508" y="1288" name="top0315"/>
  <outline>
    <contour>
      <point x="342" y="0" type="line"/>
      <point x="342" y="1082" type="line"/>
      <point x="156" y="1082" type="line"/>
      <point x="156" y="0" type="line"/>
    </contour>
  </outline>
</glyph>
<glyph name="acutecomb" format="2">
  <unicode hex="0301"/>
  <anchor x="-566" y="1290" name="_marktop"/>
  <anchor x="-566" y="1290" name="_top"/>
  <anchor x="-566" y="1640" name="mkmktop"/>
  <anchor x="-449" y="1389" name="parent_top"/>
  <outline>
    <contour>
      <point x="-465" y="1536" type="line"/>
      <point x="-659" y="1243" type="line"/>
      <point x="-509" y="1243" type="line"/>
      <point x="-240" y="1536" type="line"/>
    </contour>
  </outline>
</glyph>
<glyph name="hatafqamatshebrew" format="2">
  <unicode hex="05B3"/>
  <anchor x="598" y="0" name="_bottom"/>
  <outline>
    <contour>
      <point x="488" y="-530" type="curve" smooth="yes"/>
      <point x="532" y="-530"/>
      <point x="565" y="-499"/>
      <point x="565" y="-457" type="curve" smooth="yes"/>
      <point x="565" y="-408"/>
      <point x="526" y="-403"/>
      <point x="519" y="-289" type="curve"/>
      <point x="671" y="-289" type="line"/>
      <point x="671" y="-195" type="line"/>
      <point x="300" y="-195" type="line"/>
      <point x="300" y="-289" type="line"/>
      <point x="456" y="-289" type="line"/>
      <point x="449" y="-403"/>
      <point x="410" y="-408"/>
      <point x="410" y="-457" type="curve" smooth="yes"/>
      <point x="410" y="-496"/>
      <point x="444" y="-530"/>
    </contour>
    <contour>
      <point x="818" y="-547" type="curve" smooth="yes"/>
      <point x="862" y="-547"/>
      <point x="896" y="-515"/>
      <point x="896" y="-474" type="curve" smooth="yes"/>
      <point x="896" y="-432"/>
      <point x="862" y="-401"/>
      <point x="818" y="-401" type="curve" smooth="yes"/>
      <point x="773" y="-401"/>
      <point x="739" y="-432"/>
      <point x="739" y="-474" type="curve" smooth="yes"/>
      <point x="739" y="-515"/>
      <point x="773" y="-547"/>
    </contour>
    <contour>
      <point x="818" y="-316" type="curve" smooth="yes"/>
      <point x="862" y="-316"/>
      <point x="896" y="-284"/>
      <point x="896" y="-243" type="curve" smooth="yes"/>
      <point x="896" y="-201"/>
      <point x="862" y="-170"/>
      <point x="818" y="-170" type="curve" smooth="yes"/>
      <point x="773" y="-170"/>
      <point x="739" y="-201"/>
      <point x="739" y="-243" type="curve" smooth="yes"/>
      <point x="739" y="-284"/>
      <point x="773" y="-316"/>
    </contour>
  </outline>
</glyph>
<glyph name="patahhebrew" format="2">
  <unicode hex="05B7"/>
  <anchor x="598" y="0" name="_bottom"/>
  <outline>
    <contour>
      <point x="395" y="-289" type="line"/>
      <point x="799" y="-289" type="line"/>
      <point x="799" y="-195" type="line"/>
      <point x="395" y="-195" type="line"/>
    </contour>
  </outline>
</glyph>
<glyph name="qubutshebrew" format="2">
  <unicode hex="05BB"/>
  <anchor x="598" y="0" name="_bottom"/>
  <outline>
    <contour>
      <point x="598" y="-316" type="curve" smooth="yes"/>
      <point x="643" y="-316"/>
      <point x="676" y="-284"/>
      <point x="676" y="-243" type="curve" smooth="yes"/>
      <point x="676" y="-201"/>
      <point x="643" y="-170"/>
      <point x="598" y="-170" type="curve" smooth="yes"/>
      <point x="554" y="-170"/>
      <point x="520" y="-201"/>
      <point x="520" y="-243" type="curve" smooth="yes"/>
      <point x="520" y="-281"/>
      <point x="554" y="-316"/>
    </contour>
    <contour>
      <point x="849" y="-687" type="curve" smooth="yes"/>
      <point x="894" y="-687"/>
      <point x="927" y="-655"/>
      <point x="927" y="-614" type="curve" smooth="yes"/>
      <point x="927" y="-572"/>
      <point x="894" y="-540"/>
      <point x="849" y="-540" type="curve" smooth="yes"/>
      <point x="805" y="-540"/>
      <point x="771" y="-572"/>
      <point x="771" y="-614" type="curve" smooth="yes"/>
      <point x="771" y="-652"/>
      <point x="805" y="-687"/>
    </contour>
    <contour>
      <point x="724" y="-501" type="curve" smooth="yes"/>
      <point x="768" y="-501"/>
      <point x="802" y="-470"/>
      <point x="802" y="-429" type="curve" smooth="yes"/>
      <point x="802" y="-388"/>
      <point x="768" y="-355"/>
      <point x="724" y="-355" type="curve" smooth="yes"/>
      <point x="679" y="-355"/>
      <point x="645" y="-387"/>
      <point x="645" y="-429" type="curve" smooth="yes"/>
      <point x="645" y="-467"/>
      <point x="679" y="-501"/>
    </contour>
  </outline>
</glyph>
<glyph name="maqafhebrew" format="2">
  <advance width="516.71"/>
  <unicode hex="05BE"/>
  <outline>
    <contour>
      <point x="457" y="1029" type="line"/>
      <point x="457" y="1178" type="line"/>
      <point x="60" y="1178" type="line"/>
      <point x="60" y="1029" type="line"/>
    </contour>
  </outline>
</glyph>
<glyph name="rafehebrew" format="2">
  <unicode hex="05BF"/>
  <anchor x="484" y="1178" name="_top"/>
  <outline>
    <contour>
      <point x="240" y="1357" type="line"/>
      <point x="727" y="1357" type="line"/>
      <point x="727" y="1464" type="line"/>
      <point x="240" y="1464" type="line"/>
    </contour>
  </outline>
</glyph>
<glyph name="alefhebrew" format="2">
  <advance width="1314.45"/>
  <unicode hex="05D0"/>
  <anchor x="681" y="0" name="bottom"/>
  <anchor x="583" y="222" name="center"/>
  <anchor x="682" y="1178" name="top"/>
  <anchor x="40" y="1178" name="topleft"/>
  <outline>
    <contour>
      <point x="1006" y="0" type="line"/>
      <point x="1213" y="0" type="line"/>
      <point x="360" y="1178" type="line"/>
      <point x="152" y="1178" type="line"/>
    </contour>
    <contour>
      <point x="194" y="0" type="line"/>
      <point x="374" y="0" type="line"/>
      <point x="374" y="494" type="line" smooth="yes"/>
      <point x="374" y="620"/>
      <point x="420" y="701"/>
      <point x="518" y="745" type="curve"/>
      <point x="445" y="841" type="line"/>
      <point x="273" y="778"/>
      <point x="194" y="647"/>
      <point x="194" y="427" type="curve" smooth="yes"/>
    </contour>
    <contour>
      <point x="1218" y="1178" type="line"/>
      <point x="1009" y="1178" type="line"/>
      <point x="689" y="610" type="line"/>
      <point x="812" y="467" type="line"/>
    </contour>
  </outline>
</glyph>
<glyph name="zayinhebrew" format="2">
  <advance width="723.98"/>
  <unicode hex="05D6"/>
  <anchor x="408" y="0" name="bottom"/>
  <anchor x="565" y="603" name="center"/>
  <anchor x="353" y="1178" name="top"/>
  <anchor x="2" y="1178" name="topleft"/>
  <outline>
    <contour>
      <point x="319" y="0" type="line"/>
      <point x="510" y="0" type="line"/>
      <point x="343" y="1029" type="line"/>
      <point x="647" y="1029" type="line"/>
      <point x="648" y="1178" type="line"/>
      <point x="76" y="1178" type="line"/>
      <point x="76" y="1035" type="line"/>
      <point x="159" y="1021" type="line"/>
    </contour>
  </outline>
</glyph>
<glyph name="tethebrew" format="2">
  <advance width="1263.43"/>
  <unicode hex="05D8"/>
  <anchor x="652" y="0" name="bottom"/>
  <anchor x="652" y="603" name="center"/>
  <anchor x="637" y="1173" name="top"/>
  <anchor x="43" y="1178" name="topleft"/>
  <outline>
    <contour>
      <point x="652" y="-22" type="curve" smooth="yes"/>
      <point x="934" y="-22"/>
      <point x="1121" y="167"/>
      <point x="1121" y="451" type="curve" smooth="yes"/>
      <point x="1121" y="848" type="line" smooth="yes"/>
      <point x="1121" y="1059"/>
      <point x="1009" y="1189"/>
      <point x="826" y="1189" type="curve" smooth="yes"/>
      <point x="750" y="1189"/>
      <point x="665" y="1162"/>
      <point x="599" y="1120" type="curve"/>
      <point x="628" y="996" type="line"/>
      <point x="676" y="1019"/>
      <point x="726" y="1034"/>
      <point x="772" y="1034" type="curve" smooth="yes"/>
      <point x="876" y="1034"/>
      <point x="935" y="961"/>
      <point x="935" y="833" type="curve" smooth="yes"/>
      <point x="935" y="438" type="line" smooth="yes"/>
      <point x="935" y="251"/>
      <point x="821" y="126"/>
      <point x="651" y="126" type="curve" smooth="yes"/>
      <point x="480" y="126"/>
      <point x="366" y="251"/>
      <point x="366" y="438" type="curve" smooth="yes"/>
      <point x="366" y="1178" type="line"/>
      <point x="181" y="1178" type="line"/>
      <point x="181" y="451" type="line"/>
      <point x="181" y="167"/>
      <point x="370" y="-22"/>
    </contour>
  </outline>
</glyph>
<glyph name="yodhebrew" format="2">
  <advance width="618.44"/>
  <unicode hex="05D9"/>
  <anchor x="370" y="0" name="bottom"/>
  <anchor x="92" y="790" name="center"/>
  <anchor x="277" y="1178" name="top"/>
  <anchor x="-6" y="1178" name="topleft"/>
  <outline>
    <contour>
      <point x="271" y="521" type="line"/>
      <point x="457" y="521" type="line"/>
      <point x="457" y="1178" type="line"/>
      <point x="55" y="1178" type="line"/>
      <point x="55" y="1029" type="line"/>
      <point x="271" y="1029" type="line"/>
    </contour>
  </outline>
</glyph>
<glyph name="kafhebrew" format="2">
  <advance width="1101.31"/>
  <unicode hex="05DB"/>
  <anchor x="493" y="0" name="bottom"/>
  <anchor x="409" y="603" name="center"/>
  <anchor x="478" y="1178" name="top"/>
  <anchor x="2" y="1178" name="topleft"/>
  <outline>
    <contour>
      <point x="414" y="-17" type="curve" smooth="yes"/>
      <point x="724" y="-18"/>
      <point x="920" y="144"/>
      <point x="920" y="487" type="curve" smooth="yes"/>
      <point x="920" y="1178" type="line"/>
      <point x="122" y="1178" type="line"/>
      <point x="122" y="1029" type="line"/>
      <point x="735" y="1029" type="line"/>
      <point x="735" y="447" type="line" smooth="yes"/>
      <point x="735" y="247"/>
      <point x="619" y="136"/>
      <point x="401" y="132" type="curve" smooth="yes"/>
      <point x="318" y="131"/>
      <point x="222" y="145"/>
      <point x="111" y="175" type="curve"/>
      <point x="81" y="36" type="line"/>
      <point x="202" y="1"/>
      <point x="314" y="-17"/>
    </contour>
  </outline>
</glyph>
<glyph name="finalmemhebrew" format="2">
  <advance width="1300.89"/>
  <unicode hex="05DD"/>
  <anchor x="651" y="0" name="bottom"/>
  <anchor x="651" y="603" name="center"/>
  <anchor x="651" y="1178" name="top"/>
  <anchor x="35" y="1178" name="topleft"/>
  <outline>
    <contour>
      <point x="180" y="0" type="line"/>
      <point x="1120" y="0" type="line"/>
      <point x="1120" y="1178" type="line"/>
      <point x="180" y="1178" type="line"/>
    </contour>
    <contour>
      <point x="365" y="150" type="line"/>
      <point x="365" y="1029" type="line"/>
      <point x="935" y="1029" type="line"/>
      <point x="935" y="150" type="line"/>
    </contour>
  </outline>
</glyph>
<glyph name="memhebrew" format="2">
  <advance width="1299.07"/>
  <unicode hex="05DE"/>
  <anchor x="668" y="0" name="bottom"/>
  <anchor x="688" y="603" name="center"/>
  <anchor x="682" y="1178" name="top"/>
  <anchor x="39" y="1178" name="topleft"/>
  <outline>
    <contour>
      <point x="171" y="0" type="line"/>
      <point x="354" y="0" type="line"/>
      <point x="443" y="767" type="line" smooth="yes"/>
      <point x="463" y="938"/>
      <point x="556" y="1044"/>
      <point x="685" y="1044" type="curve" smooth="yes"/>
      <point x="864" y="1044"/>
      <point x="962" y="933"/>
      <point x="962" y="723" type="curve" smooth="yes"/>
      <point x="962" y="149" type="line"/>
      <point x="662" y="149" type="line"/>
      <point x="662" y="0" type="line"/>
      <point x="1147" y="0" type="line"/>
      <point x="1147" y="702" type="line" smooth="yes"/>
      <point x="1146" y="1029"/>
      <point x="974" y="1200"/>
      <point x="657" y="1200" type="curve" smooth="yes"/>
      <point x="494" y="1200"/>
      <point x="285" y="1163"/>
      <point x="132" y="1110" type="curve"/>
      <point x="175" y="970" type="line"/>
      <point x="251" y="996"/>
      <point x="352" y="1022"/>
      <point x="411" y="1032" type="curve"/>
      <point x="413" y="1029" type="line"/>
      <point x="407" y="1025"/>
      <point x="399" y="1020"/>
      <point x="393" y="1015" type="curve" smooth="yes"/>
      <point x="328" y="963"/>
      <point x="275" y="860"/>
      <point x="261" y="749" type="curve" smooth="yes"/>
    </contour>
  </outline>
</glyph>
<glyph name="nunhebrew" format="2">
  <advance width="741.54"/>
  <unicode hex="05E0"/>
  <anchor x="317" y="0" name="bottom"/>
  <anchor x="172" y="603" name="center"/>
  <anchor x="361" y="1178" name="top"/>
  <anchor x="17" y="1178" name="topleft"/>
  <outline>
    <contour>
      <point x="251" y="-20" type="curve" smooth="yes"/>
      <point x="450" y="-20"/>
      <point x="561" y="94"/>
      <point x="561" y="311" type="curve" smooth="yes"/>
      <point x="561" y="1178" type="line"/>
      <point x="144" y="1178" type="line"/>
      <point x="144" y="1029" type="line"/>
      <point x="375" y="1029" type="line"/>
      <point x="375" y="326" type="line" smooth="yes"/>
      <point x="375" y="194"/>
      <point x="319" y="134"/>
      <point x="211" y="134" type="curve" smooth="yes"/>
      <point x="156" y="134"/>
      <point x="105" y="139"/>
      <point x="65" y="147" type="curve"/>
      <point x="60" y="2" type="line"/>
      <point x="123" y="-12"/>
      <point x="182" y="-20"/>
    </contour>
  </outline>
</glyph>
<glyph name="pehebrew" format="2">
  <advance width="1284.21"/>
  <unicode hex="05E4"/>
  <anchor x="641" y="0" name="bottom"/>
  <anchor x="650" y="793" name="center"/>
  <anchor x="646" y="1178" name="top"/>
  <anchor x="45" y="1178" name="topleft"/>
  <outline>
    <contour>
      <point x="583" y="-20" type="curve" smooth="yes"/>
      <point x="886" y="-22"/>
      <point x="1103" y="140"/>
      <point x="1103" y="482" type="curve" smooth="yes"/>
      <point x="1103" y="1178" type="line"/>
      <point x="142" y="1178" type="line"/>
      <point x="142" y="1029" type="line"/>
      <point x="285" y="1029" type="line"/>
      <point x="226" y="945"/>
      <point x="190" y="806"/>
      <point x="190" y="672" type="curve" smooth="yes"/>
      <point x="194" y="520" type="line"/>
      <point x="288" y="469"/>
      <point x="365" y="453"/>
      <point x="531" y="453" type="curve"/>
      <point x="531" y="613" type="line"/>
      <point x="452" y="613"/>
      <point x="405" y="618"/>
      <point x="375" y="631" type="curve"/>
      <point x="375" y="721" type="line" smooth="yes"/>
      <point x="375" y="832"/>
      <point x="403" y="955"/>
      <point x="446" y="1029" type="curve"/>
      <point x="918" y="1029" type="line"/>
      <point x="918" y="447" type="line" smooth="yes"/>
      <point x="918" y="245"/>
      <point x="794" y="134"/>
      <point x="576" y="132" type="curve" smooth="yes"/>
      <point x="485" y="132"/>
      <point x="358" y="149"/>
      <point x="235" y="186" type="curve"/>
      <point x="199" y="47" type="line"/>
      <point x="327" y="3"/>
      <point x="469" y="-20"/>
    </contour>
  </outline>
</glyph>
<glyph name="tsadihebrew" format="2">
  <advance width="1119.45"/>
  <unicode hex="05E6"/>
  <anchor x="559" y="0" name="bottom"/>
  <anchor x="323" y="361" name="center"/>
  <anchor x="552" y="1178" name="top"/>
  <anchor x="17" y="1178" name="topleft"/>
  <outline>
    <contour>
      <point x="130" y="0" type="line"/>
      <point x="1002" y="0" type="line"/>
      <point x="1002" y="94" type="line"/>
      <point x="626" y="637" type="line"/>
      <point x="268" y="1178" type="line"/>
      <point x="59" y="1178" type="line"/>
      <point x="763" y="150" type="line"/>
      <point x="130" y="150" type="line"/>
    </contour>
    <contour>
      <point x="660" y="489" type="line"/>
      <point x="1052" y="1178" type="line"/>
      <point x="843" y="1178" type="line"/>
      <point x="545" y="638" type="line"/>
    </contour>
  </outline>
</glyph>
<glyph name="reshhebrew" format="2">
  <advance width="1004.94"/>
  <unicode hex="05E8"/>
  <anchor x="761" y="0" name="bottom"/>
  <anchor x="341" y="603" name="center"/>
  <anchor x="456" y="1178" name="top"/>
  <anchor x="-11" y="1178" name="topleft"/>
  <outline>
    <contour>
      <point x="667" y="0" type="line"/>
      <point x="852" y="0" type="line"/>
      <point x="852" y="808" type="line" smooth="yes"/>
      <point x="852" y="1041"/>
      <point x="706" y="1178"/>
      <point x="462" y="1178" type="curve" smooth="yes"/>
      <point x="60" y="1178" type="line"/>
      <point x="60" y="1029" type="line"/>
      <point x="456" y="1029" type="line" smooth="yes"/>
      <point x="587" y="1029"/>
      <point x="667" y="950"/>
      <point x="667" y="822" type="curve" smooth="yes"/>
    </contour>
  </outline>
</glyph>
<glyph name="afii57596" format="2">
  <unicode hex="200E"/>
  <outline>
    <contour>
      <point x="-815" y="1275" type="line"/>
      <point x="-815" y="1158" type="line"/>
      <point x="-325" y="1158" type="line"/>
      <point x="-325" y="1275" type="line"/>
    </contour>
    <contour>
      <point x="-620" y="994" type="line"/>
      <point x="-455" y="994" type="line"/>
      <point x="-207" y="1216" type="line"/>
      <point x="-299" y="1271" type="line"/>
    </contour>
    <contour>
      <point x="-445" y="1456" type="line"/>
      <point x="-611" y="1456" type="line"/>
      <point x="-303" y="1165" type="line"/>
      <point x="-207" y="1216" type="line"/>
    </contour>
    <contour>
      <point x="-815" y="1275" type="line"/>
      <point x="-815" y="-200" type="line"/>
      <point x="-698" y="-200" type="line"/>
      <point x="-698" y="1275" type="line"/>
    </contour>
  </outline>
</glyph>
<glyph name="quoteleft" format="2">
  <advance width="411"/>
  <unicode hex="2018"/>
  <outline>
    <contour>
      <point x="96" y="1195" type="curve"/>
      <point x="96" y="1074" type="line"/>
      <point x="281" y="1074" type="line"/>
      <point x="281" y="1198" type="line"/>
      <point x="281" y="1306"/>
      <point x="315" y="1396"/>
      <point x="378" y="1484" type="curve"/>
      <point x="272" y="1556" type="line"/>
      <point x="160" y="1465"/>
      <point x="96" y="1316"/>
    </contour>
  </outline>
</glyph>
<glyph name="quotesinglbase" format="2">
  <advance width="409.2"/>
  <unicode hex="201A"/>
  <outline>
    <contour>
      <point x="317" y="79" type="curve"/>
      <point x="317" y="183" type="line"/>
      <point x="131" y="183" type="line"/>
      <point x="131" y="76" type="line"/>
      <point x="131" y="-31"/>
      <point x="99" y="-122"/>
      <point x="36" y="-210" type="curve"/>
      <point x="142" y="-282" type="line"/>
      <point x="253" y="-191"/>
      <point x="317" y="-42"/>
    </contour>
  </outline>
</glyph>
<glyph name="guilsinglleft" format="2">
  <advance width="614.92"/>
  <unicode hex="2039"/>
  <outline>
    <contour>
      <point x="285" y="547" type="line"/>
      <point x="546" y="949" type="line"/>
      <point x="403" y="949" type="line"/>
      <point x="108" y="561" type="line"/>
      <point x="108" y="548" type="line"/>
    </contour>
    <contour>
      <point x="546" y="154" type="line"/>
      <point x="285" y="556" type="line"/>
      <point x="108" y="555" type="line"/>
      <point x="108" y="542" type="line"/>
      <point x="403" y="154" type="line"/>
    </contour>
  </outline>
</glyph>
<glyph name="guilsinglright" format="2">
  <advance width="614.92"/>
  <unicode hex="203A"/>
  <outline>
    <contour>
      <point x="350" y="555" type="line"/>
      <point x="90" y="153" type="line"/>
      <point x="232" y="153" type="line"/>
      <point x="527" y="541" type="line"/>
      <point x="527" y="554" type="line"/>
    </contour>
    <contour>
      <point x="232" y="949" type="line"/>
      <point x="90" y="949" type="line"/>
      <point x="350" y="546" type="line"/>
      <point x="527" y="547" type="line"/>
      <point x="527" y="560" type="line"/>
    </contour>
  </outline>
</glyph>
<glyph name="fraction" format="2">
  <advance width="931.39"/>
  <unicode hex="2044"/>
  <outline>
    <contour>
      <point x="165" y="111" type="line"/>
      <point x="876" y="1249" type="line"/>
      <point x="771" y="1315" type="line"/>
      <point x="60" y="177" type="line"/>
    </contour>
  </outline>
</glyph>
<glyph name="minus" format="2">
  <advance width="1170.64"/>
  <unicode hex="2212"/>
  <outline>
    <contour>
      <point x="1003" y="652" type="line"/>
      <point x="1003" y="802" type="line"/>
      <point x="168" y="802" type="line"/>
      <point x="168" y="652" type="line"/>
    </contour>
  </outline>
</glyph>
<glyph name="st" format="2">
  <advance width="1691.79"/>
  <unicode hex="FB06"/>
  <outline>
    <contour>
      <point x="843" y="765" type="curve"/>
      <point x="947" y="765" type="line"/>
      <point x="947" y="976"/>
      <point x="849" y="1081"/>
      <point x="849" y="1241" type="curve" smooth="yes"/>
      <point x="849" y="1334"/>
      <point x="911" y="1399"/>
      <point x="1028" y="1399" type="curve" smooth="yes"/>
      <point x="1171" y="1399"/>
      <point x="1228" y="1304"/>
      <point x="1228" y="1168" type="curve"/>
      <point x="1415" y="1168" type="line"/>
      <point x="1415" y="1334"/>
      <point x="1348" y="1553"/>
      <point x="1029" y="1553" type="curve" smooth="yes"/>
      <point x="815" y="1553"/>
      <point x="670" y="1427"/>
      <point x="670" y="1264" type="curve" smooth="yes"/>
      <point x="670" y="1111"/>
      <point x="778" y="959"/>
    </contour>
    <contour>
      <point x="1616" y="941" type="line"/>
      <point x="1616" y="1082" type="line"/>
      <point x="1040" y="1082" type="line"/>
      <point x="1040" y="941" type="line"/>
    </contour>
    <contour>
      <point x="1415" y="1169" type="line"/>
      <point x="1228" y="1169" type="line"/>
      <point x="1228" y="298" type="line" smooth="yes"/>
      <point x="1228" y="68"/>
      <point x="1341" y="-20"/>
      <point x="1478" y="-20" type="curve" smooth="yes"/>
      <point x="1545" y="-20"/>
      <point x="1592" y="-9"/>
      <point x="1621" y="0" type="curve"/>
      <point x="1620" y="149" type="line"/>
      <point x="1603" y="145"/>
      <point x="1564" y="138"/>
      <point x="1533" y="138" type="curve" smooth="yes"/>
      <point x="1472" y="138"/>
      <point x="1415" y="171"/>
      <point x="1415" y="297" type="curve" smooth="yes"/>
    </contour>
    <component base="s"/>
  </outline>
</glyph>
<glyph name="ayinaltonehebrew" format="2">
  <advance width="1217.64"/>
  <unicode hex="FB20"/>
  <anchor x="544" y="0" name="bottom"/>
  <anchor x="621" y="748" name="center"/>
  <anchor x="586" y="1178" name="top"/>
  <anchor x="16" y="1178" name="topleft"/>
  <outline>
    <contour>
      <point x="480" y="-39" type="curve" smooth="yes"/>
      <point x="790" y="-39"/>
      <point x="986" y="139"/>
      <point x="1002" y="463" type="curve" smooth="yes"/>
      <point x="1037" y="1178" type="line"/>
      <point x="853" y="1178" type="line"/>
      <point x="819" y="455" type="line" smooth="yes"/>
      <point x="808" y="229"/>
      <point x="674" y="109"/>
      <point x="457" y="109" type="curve" smooth="yes"/>
      <point x="357" y="110"/>
      <point x="239" y="135"/>
      <point x="106" y="187" type="curve"/>
      <point x="61" y="48" type="line"/>
      <point x="216" y="-10"/>
      <point x="357" y="-39"/>
    </contour>
    <contour>
      <point x="140" y="1178" type="line"/>
      <point x="335" y="319" type="line" smooth="yes"/>
      <point x="359" y="214"/>
      <point x="407" y="144"/>
      <point x="462" y="89" type="curve"/>
      <point x="608" y="86" type="line"/>
      <point x="561" y="146"/>
      <point x="538" y="210"/>
      <point x="516" y="309" type="curve" smooth="yes"/>
      <point x="326" y="1178" type="line"/>
    </contour>
  </outline>
</glyph>
<glyph name="widealefhebrew" format="2">
  <advance width="1812.37"/>
  <unicode hex="FB21"/>
  <anchor x="883" y="0" name="bottom"/>
  <anchor x="693" y="284" name="center"/>
  <anchor x="942" y="1178" name="top"/>
  <anchor x="45" y="1178" name="topleft"/>
  <outline>
    <contour>
      <point x="1428" y="0" type="line"/>
      <point x="1684" y="0" type="line"/>
      <point x="400" y="1178" type="line"/>
      <point x="152" y="1178" type="line"/>
    </contour>
    <contour>
      <point x="223" y="0" type="line"/>
      <point x="403" y="0" type="line"/>
      <point x="403" y="572" type="line" smooth="yes"/>
      <point x="403" y="743"/>
      <point x="445" y="848"/>
      <point x="517" y="933" type="curve"/>
      <point x="460" y="1003" type="line"/>
      <point x="305" y="924"/>
      <point x="223" y="783"/>
      <point x="223" y="578" type="curve" smooth="yes"/>
    </contour>
    <contour>
      <point x="1231" y="320" type="line"/>
      <point x="1716" y="1178" type="line"/>
      <point x="1508" y="1178" type="line"/>
      <point x="1108" y="462" type="line"/>
    </contour>
  </outline>
</glyph>
<glyph name="widehehebrew" format="2">
  <advance width="1631.37"/>
  <unicode hex="FB23"/>
  <anchor x="800" y="0" name="bottom"/>
  <anchor x="800" y="603" name="center"/>
  <anchor x="787" y="1178" name="top"/>
  <anchor x="3" y="1178" name="topleft"/>
  <outline>
    <contour>
      <point x="148" y="0" type="line"/>
      <point x="331" y="0" type="line"/>
      <point x="331" y="389" type="line" smooth="yes"/>
      <point x="331" y="494"/>
      <point x="346" y="587"/>
      <point x="361" y="646" type="curve"/>
      <point x="353" y="655" type="line"/>
      <point x="187" y="631" type="line"/>
      <point x="172" y="588"/>
      <point x="148" y="514"/>
      <point x="148" y="396" type="curve" smooth="yes"/>
    </contour>
    <contour>
      <point x="1293" y="0" type="line"/>
      <point x="1479" y="0" type="line"/>
      <point x="1479" y="808" type="line" smooth="yes"/>
      <point x="1479" y="1041"/>
      <point x="1333" y="1178"/>
      <point x="1088" y="1178" type="curve" smooth="yes"/>
      <point x="149" y="1178" type="line"/>
      <point x="149" y="1029" type="line"/>
      <point x="1084" y="1029" type="line" smooth="yes"/>
      <point x="1213" y="1029"/>
      <point x="1293" y="950"/>
      <point x="1293" y="822" type="curve" smooth="yes"/>
    </contour>
  </outline>
</glyph>
<glyph name="finalwidememhebrew" format="2">
  <advance width="1763.5"/>
  <unicode hex="FB26"/>
  <anchor x="865" y="0" name="bottom"/>
  <anchor x="865" y="603" name="center"/>
  <anchor x="865" y="1178" name="top"/>
  <anchor x="-31" y="1178" name="topleft"/>
  <outline>
    <contour>
      <point x="114" y="0" type="line"/>
      <point x="1614" y="0" type="line"/>
      <point x="1614" y="1178" type="line"/>
      <point x="114" y="1178" type="line"/>
    </contour>
    <contour>
      <point x="299" y="150" type="line"/>
      <point x="299" y="1029" type="line"/>
      <point x="1429" y="1029" type="line"/>
      <point x="1429" y="150" type="line"/>
    </contour>
  </outline>
</glyph>
<glyph name="widereshhebrew" format="2">
  <advance width="1434.88"/>
  <unicode hex="FB27"/>
  <anchor x="1189" y="0" name="bottom"/>
  <anchor x="504" y="603" name="center"/>
  <anchor x="610" y="1178" name="top"/>
  <anchor x="-9" y="1178" name="topleft"/>
  <outline>
    <contour>
      <point x="1097" y="0" type="line"/>
      <point x="1282" y="0" type="line"/>
      <point x="1282" y="808" type="line" smooth="yes"/>
      <point x="1282" y="1041"/>
      <point x="1137" y="1178"/>
      <point x="891" y="1178" type="curve" smooth="yes"/>
      <point x="60" y="1178" type="line"/>
      <point x="60" y="1029" type="line"/>
      <point x="887" y="1029" type="line" smooth="yes"/>
      <point x="1018" y="1029"/>
      <point x="1097" y="950"/>
      <point x="1097" y="822" type="curve" smooth="yes"/>
    </contour>
  </outline>
</glyph>
<glyph name="widetavhebrew" format="2">
  <advance width="1755.43"/>
  <unicode hex="FB28"/>
  <anchor x="897" y="0" name="bottom"/>
  <anchor x="926" y="603" name="center"/>
  <anchor x="893" y="1178" name="top"/>
  <anchor x="47" y="1178" name="topleft"/>
  <outline>
    <contour>
      <point x="1139" y="1178" type="curve" smooth="yes"/>
      <point x="113" y="1178" type="line"/>
      <point x="113" y="1029" type="line"/>
      <point x="334" y="1029" type="line"/>
      <point x="277" y="955"/>
      <point x="244" y="821"/>
      <point x="244" y="703" type="curve" smooth="yes"/>
      <point x="244" y="331" type="line" smooth="yes"/>
      <point x="244" y="202"/>
      <point x="195" y="144"/>
      <point x="78" y="144" type="curve" smooth="yes"/>
      <point x="56" y="144"/>
      <point x="33" y="145"/>
      <point x="9" y="148" type="curve"/>
      <point x="9" y="-1" type="line"/>
      <point x="49" y="-6"/>
      <point x="84" y="-10"/>
      <point x="124" y="-10" type="curve" smooth="yes"/>
      <point x="319" y="-10"/>
      <point x="425" y="103"/>
      <point x="425" y="320" type="curve" smooth="yes"/>
      <point x="425" y="717" type="line" smooth="yes"/>
      <point x="425" y="835"/>
      <point x="453" y="957"/>
      <point x="497" y="1029" type="curve"/>
      <point x="1140" y="1029" type="line" smooth="yes"/>
      <point x="1334" y="1029"/>
      <point x="1417" y="942"/>
      <point x="1417" y="738" type="curve" smooth="yes"/>
      <point x="1418" y="0" type="line"/>
      <point x="1603" y="0" type="line"/>
      <point x="1603" y="727" type="line" smooth="yes"/>
      <point x="1603" y="1031"/>
      <point x="1450" y="1178"/>
    </contour>
  </outline>
</glyph>
<glyph name="aleflamedhebrew" format="2">
  <advance width="1194.8"/>
  <unicode hex="FB4F"/>
  <outline>
    <contour>
      <point x="870" y="0" type="line"/>
      <point x="1075" y="0" type="line"/>
      <point x="268" y="1132" type="line"/>
      <point x="268" y="1501" type="line"/>
      <point x="83" y="1501" type="line"/>
      <point x="83" y="1100" type="line"/>
    </contour>
    <contour>
      <point x="1099" y="1178" type="line"/>
      <point x="890" y="1178" type="line"/>
      <point x="570" y="610" type="line"/>
      <point x="693" y="467" type="line"/>
    </contour>
  </outline>
</glyph>
<glyph name="A.smcp" format="2">
  <advance width="1159.01"/>
  <anchor x="592" y="0" name="bottom"/>
  <anchor x="1159.01" y="-407" name="bottom_dd"/>
  <anchor x="1099" y="0" name="ogonek"/>
  <anchor x="1115" y="0" name="right"/>
  <anchor x="322" y="1163" name="tonos"/>
  <anchor x="582" y="1320" name="top"/>
  <anchor x="1159.01" y="1320" name="top0315"/>
  <anchor x="1159.01" y="1600" name="top_dd"/>
  <outline>
    <contour>
      <point x="210" y="0" type="line"/>
      <point x="607" y="1003" type="line"/>
      <point x="621" y="1165" type="line"/>
      <point x="499" y="1165" type="line"/>
      <point x="20" y="0" type="line"/>
    </contour>
    <contour>
      <point x="555" y="1006" type="line"/>
      <point x="948" y="0" type="line"/>
      <point x="1138" y="0" type="line"/>
      <point x="666" y="1165" type="line"/>
      <point x="542" y="1165" type="line"/>
    </contour>
    <contour>
      <point x="923" y="280" type="line"/>
      <point x="923" y="431" type="line"/>
      <point x="230" y="431" type="line"/>
      <point x="230" y="280" type="line"/>
    </contour>
  </outline>
</glyph>
<glyph name="B.smcp" format="2">
  <advance width="1104.95"/>
  <anchor x="536" y="10" name="bottom"/>
  <anchor x="1105" y="-407" name="bottom_dd"/>
  <anchor x="529" y="1320" name="top"/>
  <anchor x="1105" y="1320" name="top0315"/>
  <anchor x="1105" y="1600" name="top_dd"/>
  <outline>
    <contour>
      <point x="276" y="531" type="line"/>
      <point x="594" y="531" type="line"/>
      <point x="656" y="579" type="line"/>
      <point x="858" y="593"/>
      <point x="976" y="705"/>
      <point x="976" y="848" type="curve"/>
      <point x="976" y="1065"/>
      <point x="809" y="1165"/>
      <point x="545" y="1165" type="curve"/>
      <point x="138" y="1165" type="line"/>
      <point x="138" y="0" type="line"/>
      <point x="325" y="0" type="line"/>
      <point x="325" y="1014" type="line"/>
      <point x="545" y="1014" type="line"/>
      <point x="703" y="1014"/>
      <point x="789" y="960"/>
      <point x="789" y="840" type="curve"/>
      <point x="789" y="729"/>
      <point x="700" y="671"/>
      <point x="558" y="671" type="curve"/>
      <point x="274" y="671" type="line"/>
    </contour>
    <contour>
      <point x="209" y="0" type="line"/>
      <point x="585" y="0" type="line"/>
      <point x="844" y="0"/>
      <point x="1008" y="113"/>
      <point x="1008" y="334" type="curve" smooth="yes"/>
      <point x="1008" y="479"/>
      <point x="909" y="611"/>
      <point x="717" y="618" type="curve"/>
      <point x="677" y="671" type="line"/>
      <point x="356" y="671" type="line"/>
      <point x="355" y="531" type="line"/>
      <point x="594" y="531" type="line" smooth="yes"/>
      <point x="753" y="531"/>
      <point x="821" y="452"/>
      <point x="821" y="335" type="curve" smooth="yes"/>
      <point x="821" y="220"/>
      <point x="737" y="150"/>
      <point x="585" y="150" type="curve" smooth="yes"/>
      <point x="304" y="150" type="line"/>
    </contour>
  </outline>
</glyph>
<glyph name="C.smcp" format="2">
  <advance width="1148.28"/>
  <anchor x="586" y="-4" name="bottom"/>
  <anchor x="1148" y="-407" name="bottom_dd"/>
  <anchor x="587" y="1320" name="top"/>
  <anchor x="1148" y="1320" name="top0315"/>
  <anchor x="1148" y="1600" name="top_dd"/>
  <outline>
    <contour>
      <point x="1073" y="377" type="curve"/>
      <point x="886" y="377" type="line"/>
      <point x="862" y="221"/>
      <point x="791" y="134"/>
      <point x="592" y="134" type="curve" smooth="yes"/>
      <point x="379" y="134"/>
      <point x="282" y="295"/>
      <point x="282" y="531" type="curve" smooth="yes"/>
      <point x="282" y="634" type="line" smooth="yes"/>
      <point x="282" y="883"/>
      <point x="392" y="1030"/>
      <point x="603" y="1030" type="curve" smooth="yes"/>
      <point x="791" y="1030"/>
      <point x="865" y="938"/>
      <point x="886" y="783" type="curve"/>
      <point x="1073" y="783" type="line"/>
      <point x="1048" y="1018"/>
      <point x="894" y="1181"/>
      <point x="603" y="1181" type="curve" smooth="yes"/>
      <point x="292" y="1181"/>
      <point x="97" y="967"/>
      <point x="97" y="633" type="curve"/>
      <point x="97" y="531" type="line"/>
      <point x="97" y="197"/>
      <point x="291" y="-16"/>
      <point x="592" y="-16" type="curve" smooth="yes"/>
      <point x="894" y="-16"/>
      <point x="1048" y="149"/>
    </contour>
  </outline>
</glyph>
<glyph name="D.smcp" format="2">
  <advance width="1152"/>
  <anchor x="500" y="10" name="bottom"/>
  <anchor x="1152" y="-407" name="bottom_dd"/>
  <anchor x="248" y="586" name="cross"/>
  <anchor x="500" y="1320" name="top"/>
  <anchor x="1152" y="1320" name="top0315"/>
  <anchor x="1152" y="1600" name="top_dd"/>
  <outline>
    <contour>
      <point x="223" y="0" type="line"/>
      <point x="487" y="0" type="line"/>
      <point x="832" y="0"/>
      <point x="1056" y="215"/>
      <point x="1056" y="550" type="curve"/>
      <point x="1056" y="614" type="line"/>
      <point x="1056" y="949"/>
      <point x="830" y="1165"/>
      <point x="499" y="1165" type="curve"/>
      <point x="217" y="1165" type="line"/>
      <point x="217" y="1014" type="line"/>
      <point x="499" y="1014" type="line"/>
      <point x="741" y="1014"/>
      <point x="870" y="871"/>
      <point x="870" y="616" type="curve"/>
      <point x="870" y="550" type="line" smooth="yes"/>
      <point x="870" y="303"/>
      <point x="744" y="150"/>
      <point x="487" y="150" type="curve"/>
      <point x="224" y="150" type="line"/>
    </contour>
    <contour>
      <point x="325" y="0" type="line"/>
      <point x="325" y="1165" type="line"/>
      <point x="138" y="1165" type="line"/>
      <point x="138" y="0" type="line"/>
    </contour>
  </outline>
</glyph>
<glyph name="D.ss06" format="2">
  <advance width="1427.69"/>
  <outline>
    <contour>
      <point x="267" y="0" type="line"/>
      <point x="595" y="0" type="line"/>
      <point x="1005" y="0"/>
      <point x="1298" y="273"/>
      <point x="1298" y="706" type="curve"/>
      <point x="1298" y="749" type="line"/>
      <point x="1298" y="1182"/>
      <point x="1001" y="1456"/>
      <point x="612" y="1456" type="curve"/>
      <point x="261" y="1456" type="line"/>
      <point x="261" y="1299" type="line"/>
      <point x="611" y="1299" type="line"/>
      <point x="906" y="1299"/>
      <point x="1102" y="1097"/>
      <point x="1102" y="751" type="curve"/>
      <point x="1102" y="706" type="line" smooth="yes"/>
      <point x="1102" y="377"/>
      <point x="912" y="156"/>
      <point x="594" y="156" type="curve"/>
      <point x="269" y="156" type="line"/>
    </contour>
    <contour>
      <point x="372" y="0" type="line"/>
      <point x="372" y="1456" type="line"/>
      <point x="178" y="1456" type="line"/>
      <point x="178" y="0" type="line"/>
    </contour>
  </outline>
</glyph>
<glyph name="E.smcp" format="2">
  <advance width="998.36"/>
  <anchor x="537" y="8" name="bottom"/>
  <anchor x="998" y="-407" name="bottom_dd"/>
  <anchor x="881" y="0" name="ogonek"/>
  <anchor x="17" y="1166" name="tonos"/>
  <anchor x="537" y="1320" name="top"/>
  <anchor x="998" y="1320" name="top0315"/>
  <anchor x="998" y="1600" name="top_dd"/>
  <outline>
    <contour>
      <point x="943" y="0" type="line"/>
      <point x="943" y="150" type="line"/>
      <point x="279" y="150" type="line"/>
      <point x="279" y="0" type="line"/>
    </contour>
    <contour>
      <point x="325" y="0" type="line"/>
      <point x="325" y="1165" type="line"/>
      <point x="138" y="1165" type="line"/>
      <point x="138" y="0" type="line"/>
    </contour>
    <contour>
      <point x="856" y="527" type="line"/>
      <point x="856" y="678" type="line"/>
      <point x="279" y="678" type="line"/>
      <point x="279" y="527" type="line"/>
    </contour>
    <contour>
      <point x="937" y="1014" type="line"/>
      <point x="937" y="1165" type="line"/>
      <point x="279" y="1165" type="line"/>
      <point x="279" y="1014" type="line"/>
    </contour>
  </outline>
</glyph>
<glyph name="G.smcp" format="2">
  <advance width="1196.17"/>
  <anchor x="590" y="-4" name="bottom"/>
  <anchor x="1196" y="-407" name="bottom_dd"/>
  <anchor x="584" y="1320" name="top"/>
  <anchor x="1196" y="1320" name="top0315"/>
  <anchor x="1196" y="1600" name="top_dd"/>
  <outline>
    <contour>
      <point x="1078" y="150" type="curve"/>
      <point x="1078" y="591" type="line"/>
      <point x="612" y="591" type="line"/>
      <point x="612" y="448" type="line"/>
      <point x="892" y="448" type="line"/>
      <point x="892" y="209" type="line"/>
      <point x="860" y="179"/>
      <point x="795" y="134"/>
      <point x="631" y="134" type="curve" smooth="yes"/>
      <point x="421" y="134"/>
      <point x="287" y="282"/>
      <point x="287" y="540" type="curve" smooth="yes"/>
      <point x="287" y="627" type="line" smooth="yes"/>
      <point x="287" y="880"/>
      <point x="391" y="1030"/>
      <point x="610" y="1030" type="curve" smooth="yes"/>
      <point x="793" y="1030"/>
      <point x="870" y="936"/>
      <point x="893" y="813" type="curve"/>
      <point x="1078" y="813" type="line"/>
      <point x="1047" y="1027"/>
      <point x="904" y="1181"/>
      <point x="608" y="1181" type="curve" smooth="yes"/>
      <point x="287" y="1181"/>
      <point x="99" y="975"/>
      <point x="99" y="625" type="curve" smooth="yes"/>
      <point x="99" y="540" type="line" smooth="yes"/>
      <point x="99" y="189"/>
      <point x="318" y="-16"/>
      <point x="627" y="-16" type="curve" smooth="yes"/>
      <point x="906" y="-16"/>
      <point x="1028" y="86"/>
    </contour>
  </outline>
</glyph>
<glyph name="G.ss06" format="2">
  <advance width="1455.3"/>
  <outline>
    <contour>
      <point x="1312" y="191" type="curve"/>
      <point x="1312" y="723" type="line"/>
      <point x="784" y="723" type="line"/>
      <point x="784" y="569" type="line"/>
      <point x="1118" y="569" type="line"/>
      <point x="1118" y="242" type="line"/>
      <point x="1082" y="198"/>
      <point x="977" y="135"/>
      <point x="783" y="135" type="curve" smooth="yes"/>
      <point x="520" y="135"/>
      <point x="321" y="355"/>
      <point x="321" y="715" type="curve" smooth="yes"/>
      <point x="321" y="744" type="line" smooth="yes"/>
      <point x="321" y="1093"/>
      <point x="497" y="1320"/>
      <point x="747" y="1320" type="curve" smooth="yes"/>
      <point x="994" y="1320"/>
      <point x="1086" y="1187"/>
      <point x="1117" y="1030" type="curve"/>
      <point x="1312" y="1030" type="line"/>
      <point x="1272" y="1288"/>
      <point x="1102" y="1477"/>
      <point x="747" y="1477" type="curve" smooth="yes"/>
      <point x="389" y="1477"/>
      <point x="126" y="1199"/>
      <point x="126" y="742" type="curve" smooth="yes"/>
      <point x="126" y="715" type="line" smooth="yes"/>
      <point x="126" y="257"/>
      <point x="413" y="-21"/>
      <point x="783" y="-21" type="curve" smooth="yes"/>
      <point x="1097" y="-21"/>
      <point x="1259" y="112"/>
    </contour>
  </outline>
</glyph>
<glyph name="Germandbls.smcp" format="2">
  <advance width="1104.95"/>
  <outline>
    <contour>
      <point x="324" y="0" type="line"/>
      <point x="324" y="753" type="line"/>
      <point x="138" y="753" type="line"/>
      <point x="138" y="0" type="line"/>
    </contour>
    <contour>
      <point x="138" y="751" type="curve"/>
      <point x="324" y="751" type="line"/>
      <point x="324" y="903"/>
      <point x="372" y="1031"/>
      <point x="538" y="1031" type="curve" smooth="yes"/>
      <point x="621" y="1031"/>
      <point x="674" y="999"/>
      <point x="713" y="968" type="curve"/>
      <point x="477" y="672" type="line"/>
      <point x="477" y="567" type="line"/>
      <point x="583" y="567" type="line"/>
      <point x="941" y="998" type="line"/>
      <point x="836" y="1099"/>
      <point x="712" y="1181"/>
      <point x="538" y="1181" type="curve" smooth="yes"/>
      <point x="268" y="1181"/>
      <point x="138" y="1035"/>
    </contour>
    <contour>
      <point x="452" y="181" type="curve"/>
      <point x="399" y="30" type="line"/>
      <point x="472" y="-6"/>
      <point x="547" y="-21"/>
      <point x="622" y="-21" type="curve" smooth="yes"/>
      <point x="854" y="-21"/>
      <point x="1018" y="116"/>
      <point x="1018" y="356" type="curve" smooth="yes"/>
      <point x="1018" y="562"/>
      <point x="853" y="672"/>
      <point x="595" y="672" type="curve"/>
      <point x="477" y="672" type="line"/>
      <point x="477" y="536" type="line"/>
      <point x="561" y="536" type="line" smooth="yes"/>
      <point x="739" y="536"/>
      <point x="831" y="483"/>
      <point x="831" y="353" type="curve" smooth="yes"/>
      <point x="831" y="222"/>
      <point x="754" y="130"/>
      <point x="622" y="130" type="curve" smooth="yes"/>
      <point x="550" y="130"/>
      <point x="494" y="155"/>
    </contour>
  </outline>
</glyph>
<glyph name="J.smcp" format="2">
  <advance width="975.19"/>
  <anchor x="457" y="-10" name="bottom"/>
  <anchor x="975" y="-407" name="bottom_dd"/>
  <anchor x="734" y="1320" name="top"/>
  <anchor x="975" y="1320" name="top0315"/>
  <anchor x="975" y="1600" name="top_dd"/>
  <outline>
    <contour>
      <point x="658" y="1165" type="line"/>
      <point x="658" y="339" type="line"/>
      <point x="658" y="210"/>
      <point x="576" y="134"/>
      <point x="457" y="134" type="curve" smooth="yes"/>
      <point x="321" y="134"/>
      <point x="231" y="192"/>
      <point x="231" y="331" type="curve"/>
      <point x="43" y="331" type="line"/>
      <point x="43" y="95"/>
      <point x="221" y="-16"/>
      <point x="457" y="-16" type="curve" smooth="yes"/>
      <point x="681" y="-16"/>
      <point x="846" y="117"/>
      <point x="846" y="339" type="curve"/>
      <point x="846" y="1165" type="line"/>
    </contour>
  </outline>
</glyph>
<glyph name="K.alt" format="2">
  <advance width="1316.38"/>
  <anchor x="307" y="1151" name="cross"/>
  <anchor x="1186" y="-3" name="right"/>
  <outline>
    <contour>
      <point x="372" y="0" type="line"/>
      <point x="372" y="1456" type="line"/>
      <point x="178" y="1456" type="line"/>
      <point x="178" y="0" type="line"/>
    </contour>
    <contour>
      <point x="637" y="655" type="line"/>
      <point x="1269" y="1456" type="line"/>
      <point x="1028" y="1456" type="line"/>
      <point x="521" y="814" type="line"/>
      <point x="265" y="814" type="line"/>
      <point x="295" y="655" type="line"/>
    </contour>
    <contour>
      <point x="528" y="680" type="line"/>
      <point x="1073" y="0" type="line"/>
      <point x="1311" y="0" type="line"/>
      <point x="636" y="848" type="line"/>
    </contour>
  </outline>
</glyph>
<glyph name="N.smcp" format="2">
  <advance width="1251.46"/>
  <anchor x="619" y="4" name="bottom"/>
  <anchor x="1251" y="-407" name="bottom_dd"/>
  <anchor x="624" y="1320" name="top"/>
  <anchor x="1251" y="1320" name="top0315"/>
  <anchor x="1251" y="1600" name="top_dd"/>
  <outline>
    <contour>
      <point x="1113" y="0" type="line"/>
      <point x="1113" y="1165" type="line"/>
      <point x="927" y="1165" type="line"/>
      <point x="927" y="287" type="line"/>
      <point x="325" y="1165" type="line"/>
      <point x="138" y="1165" type="line"/>
      <point x="138" y="0" type="line"/>
      <point x="325" y="0" type="line"/>
      <point x="325" y="878" type="line"/>
      <point x="927" y="0" type="line"/>
    </contour>
  </outline>
</glyph>
<glyph name="O.smcp" format="2">
  <advance width="1212.4"/>
  <anchor x="631" y="0" name="bottom"/>
  <anchor x="1212" y="-407" name="bottom_dd"/>
  <anchor x="131" y="1163" name="tonos"/>
  <anchor x="607" y="1320" name="top"/>
  <anchor x="1212" y="1320" name="top0315"/>
  <anchor x="1212" y="1600" name="top_dd"/>
  <outline>
    <contour>
      <point x="1116" y="548" type="curve"/>
      <point x="1116" y="616" type="line"/>
      <point x="1116" y="967"/>
      <point x="913" y="1181"/>
      <point x="605" y="1181" type="curve" smooth="yes"/>
      <point x="304" y="1181"/>
      <point x="96" y="967"/>
      <point x="96" y="616" type="curve"/>
      <point x="96" y="548" type="line"/>
      <point x="96" y="197"/>
      <point x="306" y="-16"/>
      <point x="607" y="-16" type="curve" smooth="yes"/>
      <point x="914" y="-16"/>
      <point x="1116" y="197"/>
    </contour>
    <contour>
      <point x="931" y="618" type="curve"/>
      <point x="931" y="548" type="line"/>
      <point x="931" y="284"/>
      <point x="813" y="137"/>
      <point x="607" y="137" type="curve" smooth="yes"/>
      <point x="410" y="137"/>
      <point x="281" y="284"/>
      <point x="281" y="548" type="curve" smooth="yes"/>
      <point x="281" y="618" type="line" smooth="yes"/>
      <point x="281" y="881"/>
      <point x="408" y="1027"/>
      <point x="605" y="1027" type="curve" smooth="yes"/>
      <point x="810" y="1027"/>
      <point x="931" y="881"/>
    </contour>
  </outline>
</glyph>
<glyph name="P.smcp" format="2">
  <advance width="1117.42"/>
  <anchor x="500" y="10" name="bottom"/>
  <anchor x="1117" y="-407" name="bottom_dd"/>
  <anchor x="576" y="1320" name="top"/>
  <anchor x="1117" y="1320" name="top0315"/>
  <anchor x="1117" y="1600" name="top_dd"/>
  <outline>
    <contour>
      <point x="274" y="439" type="line"/>
      <point x="606" y="439" type="line"/>
      <point x="892" y="439"/>
      <point x="1052" y="574"/>
      <point x="1052" y="798" type="curve"/>
      <point x="1052" y="1012"/>
      <point x="892" y="1165"/>
      <point x="606" y="1165" type="curve"/>
      <point x="138" y="1165" type="line"/>
      <point x="138" y="0" type="line"/>
      <point x="325" y="0" type="line"/>
      <point x="325" y="1014" type="line"/>
      <point x="606" y="1014" type="line"/>
      <point x="789" y="1014"/>
      <point x="865" y="910"/>
      <point x="865" y="796" type="curve"/>
      <point x="865" y="676"/>
      <point x="789" y="590"/>
      <point x="606" y="590" type="curve"/>
      <point x="274" y="590" type="line"/>
    </contour>
  </outline>
</glyph>
<glyph name="Q.ss06" format="2">
  <advance width="1508.09"/>
  <outline>
    <contour>
      <point x="1309" y="-132" type="line"/>
      <point x="937" y="159" type="line"/>
      <point x="812" y="37" type="line"/>
      <point x="1177" y="-252" type="line"/>
    </contour>
    <contour>
      <point x="1376" y="706" type="curve" smooth="yes"/>
      <point x="1376" y="748" type="line"/>
      <point x="1376" y="1176"/>
      <point x="1108" y="1477"/>
      <point x="751" y="1477" type="curve" smooth="yes"/>
      <point x="404" y="1477"/>
      <point x="126" y="1176"/>
      <point x="126" y="748" type="curve" smooth="yes"/>
      <point x="126" y="706" type="line" smooth="yes"/>
      <point x="126" y="278"/>
      <point x="406" y="-21"/>
      <point x="753" y="-21" type="curve" smooth="yes"/>
      <point x="1110" y="-21"/>
      <point x="1376" y="278"/>
    </contour>
    <contour>
      <point x="1184" y="750" type="curve" smooth="yes"/>
      <point x="1184" y="706" type="line"/>
      <point x="1184" y="367"/>
      <point x="1005" y="141"/>
      <point x="753" y="141" type="curve" smooth="yes"/>
      <point x="514" y="141"/>
      <point x="319" y="367"/>
      <point x="319" y="706" type="curve" smooth="yes"/>
      <point x="319" y="750" type="line" smooth="yes"/>
      <point x="319" y="1087"/>
      <point x="512" y="1314"/>
      <point x="751" y="1314" type="curve" smooth="yes"/>
      <point x="1001" y="1314"/>
      <point x="1184" y="1087"/>
    </contour>
  </outline>
</glyph>
<glyph name="R.alt" format="2">
  <advance width="1356.38"/>
  <anchor x="620" y="10" name="bottom"/>
  <anchor x="620" y="1612" name="top"/>
  <anchor x="1356" y="1612" name="top0315"/>
  <outline>
    <contour>
      <point x="326" y="629" type="line"/>
      <point x="735" y="629" type="line"/>
      <point x="814" y="648" type="line"/>
      <point x="837" y="676" type="line"/>
      <point x="1064" y="727"/>
      <point x="1195" y="854"/>
      <point x="1195" y="1041" type="curve"/>
      <point x="1195" y="1312"/>
      <point x="1022" y="1456"/>
      <point x="704" y="1456" type="curve"/>
      <point x="178" y="1456" type="line"/>
      <point x="178" y="0" type="line"/>
      <point x="372" y="0" type="line"/>
      <point x="372" y="1299" type="line"/>
      <point x="702" y="1299" type="line"/>
      <point x="914" y="1299"/>
      <point x="1001" y="1198"/>
      <point x="1001" y="1041" type="curve"/>
      <point x="1001" y="877"/>
      <point x="914" y="785"/>
      <point x="684" y="785" type="curve"/>
      <point x="324" y="785" type="line"/>
    </contour>
    <contour>
      <point x="751" y="740" type="curve"/>
      <point x="729" y="629" type="line"/>
      <point x="892" y="629"/>
      <point x="991" y="525"/>
      <point x="991" y="367" type="curve"/>
      <point x="991" y="238" type="line"/>
      <point x="991" y="185"/>
      <point x="993" y="54"/>
      <point x="1053" y="0" type="curve"/>
      <point x="1252" y="0" type="line"/>
      <point x="1252" y="25" type="line"/>
      <point x="1200" y="74"/>
      <point x="1185" y="155"/>
      <point x="1185" y="236" type="curve"/>
      <point x="1185" y="369" type="line"/>
      <point x="1185" y="585"/>
      <point x="1084" y="740"/>
    </contour>
  </outline>
</glyph>
<glyph name="R.smcp" format="2">
  <advance width="1097.86"/>
  <anchor x="525" y="8" name="bottom"/>
  <anchor x="1098" y="-407" name="bottom_dd"/>
  <anchor x="520" y="1320" name="top"/>
  <anchor x="1098" y="1320" name="top0315"/>
  <anchor x="1098" y="1600" name="top_dd"/>
  <outline>
    <contour>
      <point x="564" y="1165" type="curve" smooth="yes"/>
      <point x="138" y="1165" type="line"/>
      <point x="138" y="0" type="line"/>
      <point x="325" y="0" type="line"/>
      <point x="325" y="1014" type="line"/>
      <point x="564" y="1014" type="line" smooth="yes"/>
      <point x="743" y="1014"/>
      <point x="822" y="928"/>
      <point x="822" y="803" type="curve" smooth="yes"/>
      <point x="822" y="687"/>
      <point x="737" y="600"/>
      <point x="569" y="600" type="curve" smooth="yes"/>
      <point x="272" y="600" type="line"/>
      <point x="274" y="450" type="line"/>
      <point x="667" y="450" type="line"/>
      <point x="722" y="476" type="line"/>
      <point x="900" y="524"/>
      <point x="1009" y="637"/>
      <point x="1009" y="810" type="curve" smooth="yes"/>
      <point x="1009" y="1038"/>
      <point x="847" y="1165"/>
    </contour>
    <contour>
      <point x="562" y="519" type="line"/>
      <point x="862" y="0" type="line"/>
      <point x="1062" y="0" type="line"/>
      <point x="1062" y="10" type="line"/>
      <point x="759" y="520" type="line"/>
    </contour>
  </outline>
</glyph>
<glyph name="T.smcp" format="2">
  <advance width="1062.92"/>
  <anchor x="531" y="3" name="bottom"/>
  <anchor x="1063" y="-407" name="bottom_dd"/>
  <anchor x="528" y="691" name="cross"/>
  <anchor x="617" y="0" name="right"/>
  <anchor x="530" y="1320" name="top"/>
  <anchor x="1063" y="1320" name="top0315"/>
  <anchor x="1063" y="1600" name="top_dd"/>
  <outline>
    <contour>
      <point x="623" y="0" type="line"/>
      <point x="623" y="1165" type="line"/>
      <point x="437" y="1165" type="line"/>
      <point x="437" y="0" type="line"/>
    </contour>
    <contour>
      <point x="1021" y="1014" type="line"/>
      <point x="1021" y="1165" type="line"/>
      <point x="41" y="1165" type="line"/>
      <point x="41" y="1014" type="line"/>
    </contour>
  </outline>
</glyph>
<glyph name="Thorn.smcp" format="2">
  <advance width="1017.42"/>
  <anchor x="450" y="10" name="bottom"/>
  <anchor x="1017" y="-407" name="bottom_dd"/>
  <anchor x="526" y="1320" name="top"/>
  <anchor x="1017" y="1320" name="top0315"/>
  <anchor x="1017" y="1600" name="top_dd"/>
  <outline>
    <contour>
      <point x="138" y="1165" type="line"/>
      <point x="138" y="0" type="line"/>
      <point x="325" y="0" type="line"/>
      <point x="325" y="1165" type="line"/>
    </contour>
    <contour>
      <point x="274" y="388" type="line"/>
      <point x="274" y="236" type="line"/>
      <point x="506" y="236" type="line" smooth="yes"/>
      <point x="792" y="236"/>
      <point x="952" y="372"/>
      <point x="952" y="596" type="curve" smooth="yes"/>
      <point x="952" y="809"/>
      <point x="792" y="963"/>
      <point x="506" y="963" type="curve" smooth="yes"/>
      <point x="277" y="963" type="line"/>
      <point x="277" y="811" type="line"/>
      <point x="506" y="811" type="line" smooth="yes"/>
      <point x="689" y="811"/>
      <point x="765" y="708"/>
      <point x="765" y="594" type="curve" smooth="yes"/>
      <point x="765" y="474"/>
      <point x="689" y="388"/>
      <point x="506" y="388" type="curve" smooth="yes"/>
    </contour>
  </outline>
</glyph>
<glyph name="W.smcp" format="2">
  <advance width="1556.6"/>
  <anchor x="786" y="10" name="bottom"/>
  <anchor x="1557" y="-407" name="bottom_dd"/>
  <anchor x="786" y="1320" name="top"/>
  <anchor x="1557" y="1320" name="top0315"/>
  <anchor x="1557" y="1600" name="top_dd"/>
  <outline>
    <contour>
      <point x="704" y="1165" type="line"/>
      <point x="457" y="278" type="line"/>
      <point x="394" y="0" type="line"/>
      <point x="521" y="0" type="line"/>
      <point x="788" y="918" type="line"/>
      <point x="834" y="1165" type="line"/>
    </contour>
    <contour>
      <point x="432" y="295" type="line"/>
      <point x="234" y="1165" type="line"/>
      <point x="49" y="1165" type="line"/>
      <point x="346" y="0" type="line"/>
      <point x="474" y="0" type="line"/>
    </contour>
    <contour>
      <point x="1336" y="1165" type="line"/>
      <point x="1139" y="297" type="line"/>
      <point x="1095" y="0" type="line"/>
      <point x="1223" y="0" type="line"/>
      <point x="1521" y="1165" type="line"/>
    </contour>
    <contour>
      <point x="1114" y="275" type="line"/>
      <point x="871" y="1165" type="line"/>
      <point x="743" y="1165" type="line"/>
      <point x="789" y="918" type="line"/>
      <point x="1049" y="0" type="line"/>
      <point x="1176" y="0" type="line"/>
    </contour>
  </outline>
</glyph>
<glyph name="X.smcp" format="2">
  <advance width="1108.69"/>
  <anchor x="550" y="8" name="bottom"/>
  <anchor x="1109" y="-407" name="bottom_dd"/>
  <anchor x="538" y="594" name="cross"/>
  <anchor x="977" y="0" name="right"/>
  <anchor x="550" y="1320" name="top"/>
  <anchor x="1109" y="1320" name="top0315"/>
  <anchor x="1109" y="1600" name="top_dd"/>
  <outline>
    <contour>
      <point x="552" y="729" type="line"/>
      <point x="268" y="1165" type="line"/>
      <point x="47" y="1165" type="line"/>
      <point x="444" y="588" type="line"/>
      <point x="39" y="0" type="line"/>
      <point x="260" y="0" type="line"/>
      <point x="555" y="444" type="line"/>
      <point x="852" y="0" type="line"/>
      <point x="1075" y="0" type="line"/>
      <point x="666" y="588" type="line"/>
      <point x="1060" y="1165" type="line"/>
      <point x="838" y="1165" type="line"/>
    </contour>
  </outline>
</glyph>
<glyph name="Y.smcp" format="2">
  <advance width="1067.47"/>
  <anchor x="533" y="10" name="bottom"/>
  <anchor x="1067" y="-407" name="bottom_dd"/>
  <anchor x="530" y="477" name="cross"/>
  <anchor x="-56" y="1163" name="tonos"/>
  <anchor x="533.01" y="1320" name="top"/>
  <anchor x="1067" y="1320" name="top0315"/>
  <anchor x="1067" y="1600" name="top_dd"/>
  <outline>
    <contour>
      <point x="843" y="1165" type="line"/>
      <point x="476" y="485" type="line"/>
      <point x="504" y="398" type="line"/>
      <point x="617" y="398" type="line"/>
      <point x="1053" y="1165" type="line"/>
    </contour>
    <contour>
      <point x="592" y="480" type="line"/>
      <point x="223" y="1165" type="line"/>
      <point x="14" y="1165" type="line"/>
      <point x="449" y="398" type="line"/>
      <point x="561" y="398" type="line"/>
    </contour>
    <contour>
      <point x="623" y="0" type="line"/>
      <point x="623" y="542" type="line"/>
      <point x="437" y="542" type="line"/>
      <point x="437" y="0" type="line"/>
    </contour>
  </outline>
</glyph>
<glyph name="alpha.alt" format="2">
  <advance width="1220.14"/>
  <outline>
    <contour>
      <point x="100" y="522" type="curve"/>
      <point x="100" y="501" type="line"/>
      <point x="100" y="196"/>
      <point x="253" y="-21"/>
      <point x="521" y="-21" type="curve" smooth="yes"/>
      <point x="795" y="-21"/>
      <point x="928" y="183"/>
      <point x="957" y="502" type="curve"/>
      <point x="957" y="579" type="line"/>
      <point x="927" y="900"/>
      <point x="795" y="1102"/>
      <point x="523" y="1102" type="curve" smooth="yes"/>
      <point x="251" y="1102"/>
      <point x="100" y="863"/>
    </contour>
    <contour>
      <point x="287" y="501" type="curve"/>
      <point x="287" y="522" type="line"/>
      <point x="287" y="755"/>
      <point x="367" y="952"/>
      <point x="569" y="952" type="curve" smooth="yes"/>
      <point x="740" y="952"/>
      <point x="820" y="755"/>
      <point x="849" y="558" type="curve"/>
      <point x="849" y="521" type="line"/>
      <point x="811" y="317"/>
      <point x="736" y="129"/>
      <point x="567" y="129" type="curve" smooth="yes"/>
      <point x="367" y="129"/>
      <point x="287" y="295"/>
    </contour>
    <contour>
      <point x="929" y="1082" type="line"/>
      <point x="851" y="540" type="line"/>
      <point x="1001" y="540" type="line"/>
      <point x="1107" y="1082" type="line"/>
    </contour>
    <contour>
      <point x="851" y="540" type="line"/>
      <point x="936" y="0" type="line"/>
      <point x="1114" y="0" type="line"/>
      <point x="1001" y="540" type="line"/>
    </contour>
  </outline>
</glyph>
<glyph name="ampersand.smcp" format="2">
  <advance width="1237.9"/>
  <outline>
    <contour>
      <point x="251" y="-16"/>
      <point x="488" y="-16" type="curve" smooth="yes"/>
      <point x="668" y="-16"/>
      <point x="811" y="42"/>
      <point x="912" y="137" type="curve" smooth="yes"/>
      <point x="927" y="150"/>
      <point x="937" y="171"/>
      <point x="950" y="186" type="curve" smooth="yes"/>
      <point x="1045" y="297"/>
      <point x="1098" y="441"/>
      <point x="1098" y="599" type="curve"/>
      <point x="928" y="599" type="line"/>
      <point x="928" y="328"/>
      <point x="769" y="137"/>
      <point x="505" y="137" type="curve" smooth="yes"/>
      <point x="359" y="137"/>
      <point x="288" y="206"/>
      <point x="288" y="303" type="curve" smooth="yes"/>
      <point x="288" y="347"/>
      <point x="301" y="403"/>
      <point x="379" y="459" type="curve" smooth="yes"/>
      <point x="679" y="674" type="line" smooth="yes"/>
      <point x="759" y="732"/>
      <point x="822" y="819"/>
      <point x="822" y="920" type="curve" smooth="yes"/>
      <point x="822" y="1059"/>
      <point x="700" y="1181"/>
      <point x="509" y="1181" type="curve" smooth="yes"/>
      <point x="319" y="1181"/>
      <point x="192" y="1075"/>
      <point x="192" y="919" type="curve" smooth="yes"/>
      <point x="192" y="789"/>
      <point x="278" y="714"/>
      <point x="389" y="597" type="curve" smooth="yes"/>
      <point x="958" y="0" type="line"/>
      <point x="1170" y="0" type="line"/>
      <point x="520" y="691" type="line" smooth="yes"/>
      <point x="443" y="773"/>
      <point x="374" y="831"/>
      <point x="374" y="906" type="curve" smooth="yes"/>
      <point x="374" y="965"/>
      <point x="418" y="1028"/>
      <point x="502" y="1028" type="curve" smooth="yes"/>
      <point x="589" y="1028"/>
      <point x="639" y="975"/>
      <point x="639" y="906" type="curve" smooth="yes"/>
      <point x="639" y="857"/>
      <point x="611" y="807"/>
      <point x="555" y="767" type="curve" smooth="yes"/>
      <point x="288" y="576" type="line" smooth="yes"/>
      <point x="173" y="492"/>
      <point x="103" y="414"/>
      <point x="103" y="278" type="curve" smooth="yes"/>
      <point x="103" y="112"/>
    </contour>
  </outline>
</glyph>
<glyph name="c.ss06" format="2">
  <advance width="1074.74"/>
  <outline>
    <contour>
      <point x="708" y="130"/>
      <point x="577" y="130" type="curve" smooth="yes"/>
      <point x="347" y="130"/>
      <point x="280" y="329"/>
      <point x="280" y="520" type="curve" smooth="yes"/>
      <point x="280" y="562" type="line" smooth="yes"/>
      <point x="280" y="751"/>
      <point x="349" y="952"/>
      <point x="576" y="952" type="curve"/>
      <point x="724" y="952"/>
      <point x="821" y="844"/>
      <point x="831" y="710" type="curve"/>
      <point x="1008" y="710" type="line"/>
      <point x="998" y="933"/>
      <point x="830" y="1102"/>
      <point x="576" y="1102" type="curve" smooth="yes"/>
      <point x="251" y="1102"/>
      <point x="93" y="853"/>
      <point x="93" y="562" type="curve" smooth="yes"/>
      <point x="93" y="520" type="line" smooth="yes"/>
      <point x="93" y="229"/>
      <point x="250" y="-20"/>
      <point x="577" y="-20" type="curve"/>
      <point x="806" y="-20"/>
      <point x="998" y="149"/>
      <point x="1008" y="342" type="curve"/>
      <point x="831" y="342" type="line"/>
      <point x="820" y="219"/>
    </contour>
  </outline>
</glyph>
<glyph name="d.ss06" format="2">
  <advance width="1171.78"/>
  <outline>
    <contour>
      <point x="839" y="1536" type="line"/>
      <point x="839" y="210" type="line"/>
      <point x="863" y="0" type="line"/>
      <point x="1025" y="0" type="line"/>
      <point x="1025" y="1536" type="line"/>
    </contour>
    <contour>
      <point x="91" y="550" type="curve" smooth="yes"/>
      <point x="91" y="529" type="line"/>
      <point x="91" y="213"/>
      <point x="283" y="-20"/>
      <point x="537" y="-20" type="curve" smooth="yes"/>
      <point x="812" y="-20"/>
      <point x="946" y="177"/>
      <point x="975" y="491" type="curve"/>
      <point x="975" y="588" type="line"/>
      <point x="944" y="905"/>
      <point x="811" y="1102"/>
      <point x="539" y="1102" type="curve" smooth="yes"/>
      <point x="281" y="1102"/>
      <point x="91" y="880"/>
    </contour>
    <contour>
      <point x="278" y="529" type="curve" smooth="yes"/>
      <point x="278" y="550" type="line"/>
      <point x="278" y="773"/>
      <point x="384" y="947"/>
      <point x="585" y="947" type="curve" smooth="yes"/>
      <point x="771" y="947"/>
      <point x="855" y="807"/>
      <point x="886" y="660" type="curve"/>
      <point x="886" y="417" type="line"/>
      <point x="845" y="267"/>
      <point x="767" y="136"/>
      <point x="583" y="136" type="curve" smooth="yes"/>
      <point x="384" y="136"/>
      <point x="278" y="313"/>
    </contour>
  </outline>
</glyph>
<glyph name="e.ss07" format="2">
  <advance width="1086.6"/>
  <outline>
    <contour>
      <point x="303" y="-20"/>
      <point x="627" y="-20" type="curve"/>
      <point x="804" y="-20"/>
      <point x="913" y="42"/>
      <point x="972" y="95" type="curve"/>
      <point x="915" y="221" type="line"/>
      <point x="851" y="172"/>
      <point x="758" y="130"/>
      <point x="636" y="130" type="curve" smooth="yes"/>
      <point x="410" y="130"/>
      <point x="280" y="305"/>
      <point x="280" y="520" type="curve" smooth="yes"/>
      <point x="280" y="564" type="line" smooth="yes"/>
      <point x="280" y="812"/>
      <point x="398" y="952"/>
      <point x="566" y="952" type="curve"/>
      <point x="755" y="952"/>
      <point x="825" y="812"/>
      <point x="825" y="666" type="curve"/>
      <point x="825" y="640" type="line"/>
      <point x="204" y="640" type="line"/>
      <point x="204" y="490" type="line"/>
      <point x="1012" y="490" type="line"/>
      <point x="1012" y="611" type="line" smooth="yes"/>
      <point x="1012" y="893"/>
      <point x="877" y="1102"/>
      <point x="566" y="1102" type="curve" smooth="yes"/>
      <point x="323" y="1102"/>
      <point x="93" y="905"/>
      <point x="93" y="564" type="curve" smooth="yes"/>
      <point x="93" y="520" type="line" smooth="yes"/>
      <point x="93" y="205"/>
    </contour>
  </outline>
</glyph>
<glyph name="five.smcp" format="2">
  <advance width="1040.03"/>
  <outline>
    <contour>
      <point x="164" y="580" type="line"/>
      <point x="314" y="543" type="line"/>
      <point x="368" y="581"/>
      <point x="412" y="613"/>
      <point x="524" y="613" type="curve"/>
      <point x="685" y="613"/>
      <point x="779" y="514"/>
      <point x="779" y="378" type="curve" smooth="yes"/>
      <point x="779" y="234"/>
      <point x="702" y="134"/>
      <point x="547" y="134" type="curve" smooth="yes"/>
      <point x="417" y="134"/>
      <point x="325" y="192"/>
      <point x="308" y="312" type="curve"/>
      <point x="128" y="312" type="line"/>
      <point x="147" y="96"/>
      <point x="335" y="-16"/>
      <point x="547" y="-16" type="curve" smooth="yes"/>
      <point x="833" y="-16"/>
      <point x="966" y="157"/>
      <point x="966" y="373" type="curve" smooth="yes"/>
      <point x="966" y="614"/>
      <point x="810" y="762"/>
      <point x="567" y="762" type="curve" smooth="yes"/>
      <point x="472" y="762"/>
      <point x="398" y="735"/>
      <point x="353" y="714" type="curve"/>
      <point x="390" y="1004" type="line"/>
      <point x="913" y="1004" type="line"/>
      <point x="913" y="1165" type="line"/>
      <point x="233" y="1165" type="line"/>
    </contour>
  </outline>
</glyph>
<glyph name="g.ss07" format="2">
  <advance width="1150.3"/>
  <outline>
    <contour>
      <point x="1011" y="1082" type="line"/>
      <point x="853" y="1082" type="line"/>
      <point x="824" y="844" type="line"/>
      <point x="824" y="50" type="line" smooth="yes"/>
      <point x="824" y="-162"/>
      <point x="737" y="-277"/>
      <point x="538" y="-277" type="curve" smooth="yes"/>
      <point x="446" y="-277"/>
      <point x="347" y="-248"/>
      <point x="274" y="-204" type="curve"/>
      <point x="218" y="-341" type="line"/>
      <point x="311" y="-400"/>
      <point x="446" y="-427"/>
      <point x="540" y="-427" type="curve" smooth="yes"/>
      <point x="842" y="-427"/>
      <point x="1011" y="-251"/>
      <point x="1011" y="60" type="curve" smooth="yes"/>
    </contour>
    <contour>
      <point x="96" y="549" type="curve" smooth="yes"/>
      <point x="96" y="528" type="line"/>
      <point x="96" y="212"/>
      <point x="262" y="-20"/>
      <point x="522" y="-20" type="curve" smooth="yes"/>
      <point x="796" y="-20"/>
      <point x="930" y="177"/>
      <point x="961" y="491" type="curve"/>
      <point x="961" y="588" type="line"/>
      <point x="929" y="905"/>
      <point x="796" y="1102"/>
      <point x="524" y="1102" type="curve" smooth="yes"/>
      <point x="260" y="1102"/>
      <point x="96" y="879"/>
    </contour>
    <contour>
      <point x="283" y="528" type="curve" smooth="yes"/>
      <point x="283" y="549" type="line"/>
      <point x="283" y="773"/>
      <point x="368" y="947"/>
      <point x="570" y="947" type="curve" smooth="yes"/>
      <point x="755" y="947"/>
      <point x="839" y="807"/>
      <point x="870" y="660" type="curve"/>
      <point x="870" y="417" type="line"/>
      <point x="829" y="267"/>
      <point x="751" y="136"/>
      <point x="568" y="136" type="curve" smooth="yes"/>
      <point x="368" y="136"/>
      <point x="283" y="312"/>
    </contour>
  </outline>
</glyph>
<glyph name="k.alt2" format="2">
  <advance width="1040.57"/>
  <outline>
    <contour>
      <point x="333" y="0" type="line"/>
      <point x="333" y="1560" type="line"/>
      <point x="147" y="1560" type="line"/>
      <point x="147" y="0" type="line"/>
    </contour>
    <contour>
      <point x="422" y="500" type="line"/>
      <point x="969" y="1082" type="line"/>
      <point x="727" y="1082" type="line"/>
      <point x="334" y="653" type="line"/>
      <point x="245" y="653" type="line"/>
      <point x="267" y="500" type="line"/>
    </contour>
    <contour>
      <point x="327" y="513" type="line"/>
      <point x="781" y="0" type="line"/>
      <point x="1011" y="0" type="line"/>
      <point x="435" y="658" type="line"/>
    </contour>
  </outline>
</glyph>
<glyph name="nine.smcp" format="2">
  <advance width="1040.03"/>
  <outline>
    <contour>
      <point x="292" y="146" type="curve"/>
      <point x="274" y="146" type="line"/>
      <point x="273" y="-7" type="line"/>
      <point x="292" y="-7" type="line"/>
      <point x="789" y="-7"/>
      <point x="923" y="291"/>
      <point x="923" y="638" type="curve"/>
      <point x="923" y="707" type="line"/>
      <point x="923" y="972"/>
      <point x="792" y="1181"/>
      <point x="501" y="1181" type="curve" smooth="yes"/>
      <point x="234" y="1181"/>
      <point x="86" y="997"/>
      <point x="86" y="773" type="curve"/>
      <point x="86" y="565"/>
      <point x="206" y="382"/>
      <point x="464" y="382" type="curve"/>
      <point x="677" y="382"/>
      <point x="794" y="525"/>
      <point x="808" y="643" type="curve"/>
      <point x="755" y="742" type="line"/>
      <point x="748" y="633"/>
      <point x="640" y="528"/>
      <point x="497" y="528" type="curve"/>
      <point x="345" y="528"/>
      <point x="271" y="648"/>
      <point x="271" y="777" type="curve"/>
      <point x="271" y="914"/>
      <point x="355" y="1030"/>
      <point x="501" y="1030" type="curve" smooth="yes"/>
      <point x="628" y="1030"/>
      <point x="737" y="929"/>
      <point x="737" y="738" type="curve" smooth="yes"/>
      <point x="737" y="537" type="line" smooth="yes"/>
      <point x="737" y="316"/>
      <point x="631" y="146"/>
    </contour>
  </outline>
</glyph>
<glyph name="reshhebrew.001" format="2">
  <advance width="1002.21"/>
  <anchor x="775" y="0" name="bottom"/>
  <anchor x="355" y="603" name="center"/>
  <anchor x="469" y="1178" name="top"/>
  <anchor x="3" y="1178" name="topleft"/>
  <outline>
    <contour>
      <point x="680" y="0" type="line"/>
      <point x="866" y="0" type="line"/>
      <point x="866" y="808" type="line" smooth="yes"/>
      <point x="866" y="1041"/>
      <point x="720" y="1178"/>
      <point x="475" y="1178" type="curve" smooth="yes"/>
      <point x="74" y="1178" type="line"/>
      <point x="74" y="1029" type="line"/>
      <point x="470" y="1029" type="line" smooth="yes"/>
      <point x="601" y="1029"/>
      <point x="680" y="950"/>
      <point x="680" y="822" type="curve" smooth="yes"/>
    </contour>
  </outline>
</glyph>
<glyph name="seven.sup" format="2">
  <advance width="751.66"/>
  <outline>
    <contour>
      <point x="678" y="700" type="line"/>
      <point x="678" y="789" type="line"/>
      <point x="59" y="789" type="line"/>
      <point x="59" y="661" type="line"/>
      <point x="511" y="661" type="line"/>
      <point x="162" y="0" type="line"/>
      <point x="329" y="0" type="line"/>
    </contour>
  </outline>
</glyph>
<glyph name="six.sup" format="2">
  <advance width="751.66"/>
  <outline>
    <contour>
      <point x="553" y="799" type="line"/>
      <point x="531" y="799" type="line"/>
      <point x="240" y="799"/>
      <point x="86" y="635"/>
      <point x="86" y="358" type="curve"/>
      <point x="86" y="302" type="line"/>
      <point x="86" y="110"/>
      <point x="204" y="-11"/>
      <point x="392" y="-11" type="curve" smooth="yes"/>
      <point x="572" y="-11"/>
      <point x="684" y="106"/>
      <point x="684" y="260" type="curve"/>
      <point x="684" y="408"/>
      <point x="600" y="524"/>
      <point x="431" y="524" type="curve"/>
      <point x="285" y="524"/>
      <point x="195" y="415"/>
      <point x="190" y="330" type="curve"/>
      <point x="232" y="283" type="line"/>
      <point x="235" y="340"/>
      <point x="301" y="397"/>
      <point x="388" y="397" type="curve"/>
      <point x="478" y="397"/>
      <point x="526" y="341"/>
      <point x="526" y="259" type="curve" smooth="yes"/>
      <point x="526" y="178"/>
      <point x="473" y="116"/>
      <point x="389" y="116" type="curve" smooth="yes"/>
      <point x="305" y="116"/>
      <point x="244" y="174"/>
      <point x="244" y="287" type="curve" smooth="yes"/>
      <point x="244" y="403" type="line" smooth="yes"/>
      <point x="244" y="583"/>
      <point x="346" y="669"/>
      <point x="542" y="669" type="curve"/>
      <point x="553" y="669" type="line"/>
    </contour>
  </outline>
</glyph>
<glyph name="sterling.smcp" format="2">
  <advance width="1077"/>
  <outline>
    <contour>
      <point x="114" y="0" type="line"/>
      <point x="1007" y="0" type="line"/>
      <point x="1008" y="151" type="line"/>
      <point x="114" y="151" type="line"/>
    </contour>
    <contour>
      <point x="798" y="501" type="line"/>
      <point x="798" y="622" type="line"/>
      <point x="49" y="622" type="line"/>
      <point x="49" y="501" type="line"/>
    </contour>
    <contour>
      <point x="399" y="466" type="curve" smooth="yes"/>
      <point x="391" y="744" type="line"/>
      <point x="385" y="929"/>
      <point x="460" y="1027"/>
      <point x="582" y="1027" type="curve" smooth="yes"/>
      <point x="690" y="1027"/>
      <point x="782" y="965"/>
      <point x="782" y="794" type="curve"/>
      <point x="969" y="794" type="line"/>
      <point x="969" y="1025"/>
      <point x="840" y="1181"/>
      <point x="582" y="1181" type="curve" smooth="yes"/>
      <point x="348" y="1181"/>
      <point x="195" y="1020"/>
      <point x="204" y="744" type="curve" smooth="yes"/>
      <point x="213" y="466" type="line" smooth="yes"/>
      <point x="217" y="350"/>
      <point x="200" y="173"/>
      <point x="124" y="151" type="curve"/>
      <point x="298" y="81" type="line"/>
      <point x="377" y="154"/>
      <point x="404" y="306"/>
    </contour>
  </outline>
</glyph>
<glyph name="two.sup" format="2">
  <advance width="751.66"/>
  <outline>
    <contour>
      <point x="684" y="0" type="line"/>
      <point x="684" y="127" type="line"/>
      <point x="286" y="127" type="line"/>
      <point x="461" y="274" type="line" smooth="yes"/>
      <point x="578" y="380"/>
      <point x="652" y="458"/>
      <point x="652" y="564" type="curve" smooth="yes"/>
      <point x="652" y="709"/>
      <point x="545" y="800"/>
      <point x="366" y="800" type="curve" smooth="yes"/>
      <point x="178" y="800"/>
      <point x="66" y="682"/>
      <point x="66" y="539" type="curve"/>
      <point x="225" y="539" type="line"/>
      <point x="225" y="615"/>
      <point x="270" y="673"/>
      <point x="370" y="673" type="curve" smooth="yes"/>
      <point x="449" y="673"/>
      <point x="493" y="627"/>
      <point x="493" y="562" type="curve" smooth="yes"/>
      <point x="493" y="518"/>
      <point x="462" y="462"/>
      <point x="373" y="379" type="curve" smooth="yes"/>
      <point x="84" y="108" type="line"/>
      <point x="84" y="0" type="line"/>
    </contour>
  </outline>
</glyph>
<glyph name="yen.smcp" format="2">
  <advance width="929.27"/>
  <outline>
    <contour>
      <point x="827" y="417" type="line"/>
      <point x="827" y="537" type="line"/>
      <point x="94" y="537" type="line"/>
      <point x="94" y="417" type="line"/>
    </contour>
    <contour>
      <point x="827" y="222" type="line"/>
      <point x="827" y="342" type="line"/>
      <point x="94" y="342" type="line"/>
      <point x="94" y="222" type="line"/>
    </contour>
    <contour>
      <point x="717" y="1165" type="line"/>
      <point x="419" y="486" type="line"/>
      <point x="435" y="398" type="line"/>
      <point x="548" y="398" type="line"/>
      <point x="915" y="1165" type="line"/>
    </contour>
    <contour>
      <point x="514" y="480" type="line"/>
      <point x="214" y="1165" type="line"/>
      <point x="14" y="1165" type="line"/>
      <point x="380" y="398" type="line"/>
      <point x="492" y="398" type="line"/>
    </contour>
    <contour>
      <point x="554" y="0" type="line"/>
      <point x="554" y="542" type="line"/>
      <point x="368" y="542" type="line"/>
      <point x="368" y="0" type="line"/>
    </contour>
  </outline>
</glyph>
<glyph name="zero.sup" format="2">
  <advance width="751.66"/>
  <outline>
    <contour>
      <point x="670" y="325" type="curve"/>
      <point x="670" y="464" type="line"/>
      <point x="670" y="692"/>
      <point x="552" y="800"/>
      <point x="375" y="800" type="curve" smooth="yes"/>
      <point x="198" y="800"/>
      <point x="80" y="692"/>
      <point x="80" y="464" type="curve"/>
      <point x="80" y="325" type="line"/>
      <point x="80" y="96"/>
      <point x="199" y="-11"/>
      <point x="377" y="-11" type="curve" smooth="yes"/>
      <point x="553" y="-11"/>
      <point x="670" y="96"/>
    </contour>
    <contour>
      <point x="512" y="478" type="curve"/>
      <point x="512" y="312" type="line"/>
      <point x="512" y="177"/>
      <point x="464" y="116"/>
      <point x="377" y="116" type="curve" smooth="yes"/>
      <point x="289" y="116"/>
      <point x="239" y="177"/>
      <point x="239" y="312" type="curve" smooth="yes"/>
      <point x="239" y="478" type="line" smooth="yes"/>
      <point x="239" y="611"/>
      <point x="288" y="672"/>
      <point x="375" y="672" type="curve" smooth="yes"/>
      <point x="463" y="672"/>
      <point x="512" y="611"/>
    </contour>
  </outline>
</glyph>
